<svg width="16" height="16" viewBox="0 0 16 16" fill="none" xmlns="http://www.w3.org/2000/svg">
<path d="M11.6 4.5H4.4C3.90294 4.5 3.5 4.94772 3.5 5.5C3.5 6.05228 3.90294 6.5 4.4 6.5H11.6C12.0971 6.5 12.5 6.05228 12.5 5.5C12.5 4.94772 12.0971 4.5 11.6 4.5Z" stroke="#9AA7B0"/>
<path d="M4.5 8.5 H7.5 C8.05228 8.5 8.5 8.94772 8.5 9.5 C8.5 10.0523 8.05228 10.5 7.5 10.5 H4.5 C3.94772 10.5 3.5 10.0523 3.5 9.5 C3.5 8.94772 3.94772 8.5 4.5 8.5Z" stroke="#9AA7B0"/>
<path d="M2 5V6H1V5H2Z" fill="#9AA7B0"/>
<path d="M15 4V5H14V4H15Z" fill="#9AA7B0"/>
<path d="M2 11V12H1V11H2Z" fill="#9AA7B0"/>
<path d="M2 3V4H1V3H2Z" fill="#9AA7B0"/>
<path d="M15 1V3H14V1H15Z" fill="#9AA7B0"/>
<path d="M3 1V2H1V1H3Z" fill="#9AA7B0"/>
<path d="M5 1V2H4V1H5Z" fill="#9AA7B0"/>
<path d="M4 14V15H3V14H4Z" fill="#9AA7B0"/>
<path d="M7 1V2H6V1H7Z" fill="#9AA7B0"/>
<path d="M6 14V15H5V14H6Z" fill="#9AA7B0"/>
<path d="M9 1V2H8V1H9Z" fill="#9AA7B0"/>
<path d="M8 14V15H7V14H8Z" fill="#9AA7B0"/>
<path d="M11 1V2H10V1H11Z" fill="#9AA7B0"/>
<path d="M10 14V15H9V14H10Z" fill="#9AA7B0"/>
<path d="M13 1V2H12V1H13Z" fill="#9AA7B0"/>
<path d="M12 14V15H11V14H12Z" fill="#9AA7B0"/>
<path d="M15 6V7H14V6H15Z" fill="#9AA7B0"/>
<path d="M15 12V13H14V12H15Z" fill="#9AA7B0"/>
<path d="M2 13L2 15H1L1 13H2Z" fill="#9AA7B0"/>
<path d="M2 9V10H1V9H2Z" fill="#9AA7B0"/>
<path d="M15 10V11H14V10H15Z" fill="#9AA7B0"/>
<path d="M15 10V9H14V8H15Z" fill="#9AA7B0"/>
<path d="M2 7V8H1V7H2Z" fill="#9AA7B0"/>
<path d="M13 15 V14 H15 V15 H13 Z" fill="#9AA7B0"/>
</svg>
