<!--
  - Copyright 2022 Haulmont.
  -
  - Licensed under the Apache License, Version 2.0 (the "License");
  - you may not use this file except in compliance with the License.
  - You may obtain a copy of the License at
  -
  -     http://www.apache.org/licenses/LICENSE-2.0
  -
  - Unless required by applicable law or agreed to in writing, software
  - distributed under the License is distributed on an "AS IS" BASIS,
  - WITHOUT WARRANTIES OR CONDITIONS OF ANY KIND, either express or implied.
  - See the License for the specific language governing permissions and
  - limitations under the License.
  -->

<svg width="16" height="16" viewBox="0 0 16 16" fill="none" xmlns="http://www.w3.org/2000/svg">
<path fill-rule="evenodd" clip-rule="evenodd" d="M6.90909 9.68182C6.90909 8.0705 8.27094 6.72727 9.99735 6.72727C11.0037 6.72727 11.8906 7.18645 12.4524 7.88938L10.5332 8.6648L13.975 10.5098L15.1691 6.79177L13.5819 7.43303C12.818 6.29229 11.4933 5.54546 9.99735 5.54546C7.65986 5.54546 5.72727 7.37694 5.72727 9.68182C5.72727 11.9867 7.65986 13.8182 9.99735 13.8182C11.015 13.8182 11.9526 13.4727 12.6884 12.8936C12.9449 12.6918 12.935 12.3139 12.6995 12.088C12.464 11.8621 12.0923 11.8754 11.8255 12.0633C11.315 12.4228 10.6836 12.6364 9.99735 12.6364C8.27094 12.6364 6.90909 11.2931 6.90909 9.68182Z" fill="#9AA7B0"/>
<path fill-rule="evenodd" clip-rule="evenodd" d="M2.5 1.28654C3.48575 1.08554 4.49196 0.989727 5.5 1.00087C6.50804 0.989727 7.51428 1.08554 8.5 1.28654C8.87875 1.35446 9.23717 1.50074 9.55 1.71503C9.57271 1.73666 9.60229 1.75828 9.63459 1.78188C9.70896 1.83624 9.79771 1.90111 9.85 2.0007C9.94413 2.0983 9.99745 2.22531 10 2.35778V4C8.15309 4 6.50108 4.83448 5.40045 6.14698C4.42422 6.18306 3.44743 6.0855 2.5 5.85717C2.13532 5.78167 1.7824 5.66165 1.45 5.50009V7.21407C1.45 7.28549 1.525 7.42832 1.75 7.49974C2.00259 7.661 2.28131 7.78162 2.575 7.85682C3.14591 7.97628 3.72422 8.0586 4.30594 8.10338C4.10747 8.6995 4 9.3372 4 10C4 10.321 4.02521 10.6361 4.07375 10.9434C3.5453 10.8962 3.0198 10.8194 2.5 10.7135C2.12128 10.6455 1.76284 10.4993 1.45 10.285C1.42729 10.2633 1.39771 10.2417 1.36541 10.2181C1.29104 10.1638 1.20229 10.0989 1.15 9.9993C1.06681 9.86904 1.01553 9.72257 1 9.57081V2.35778C1.00256 2.22531 1.05591 2.0983 1.15 2.0007C1.20229 1.90111 1.29104 1.83624 1.36541 1.78188C1.39771 1.75828 1.42729 1.73666 1.45 1.71503C1.76284 1.50074 2.12128 1.35446 2.5 1.28654ZM8.425 1.71503C7.46462 1.51409 6.48324 1.41825 5.5 1.42937C4.5188 1.45379 3.54098 1.54928 2.575 1.71503C2.28674 1.80407 2.00999 1.92385 1.75 2.07211C1.525 2.21495 1.45 2.35778 1.45 2.42919C1.45 2.50061 1.525 2.57203 1.75 2.71486C2.00999 2.86311 2.28674 2.98291 2.575 3.07194C3.5354 3.27288 4.51676 3.36872 5.5 3.3576C6.48834 3.37981 7.47452 3.25942 8.425 3.00052C8.73745 2.91226 9.03918 2.79256 9.325 2.64344C9.38387 2.61663 9.4351 2.57664 9.47433 2.5269C9.51348 2.47716 9.53942 2.41914 9.55 2.35778C9.55 2.28636 9.55 2.21495 9.325 2.07211C9.03918 1.923 8.73745 1.8033 8.425 1.71503Z" fill="#9AA7B0"/>
</svg>
