<?xml version="1.0" encoding="utf-8"?>
<!DOCTYPE svg PUBLIC "-//W3C//DTD SVG 1.1//EN" "http://www.w3.org/Graphics/SVG/1.1/DTD/svg11.dtd">
<svg version="1.1" xmlns="http://www.w3.org/2000/svg" xmlns:xlink="http://www.w3.org/1999/xlink" width="16" height="16" viewBox="0 0 16 16">
<path fill="#9AA7B0" d="M14.7 3.1c-0.4-0.4-1-0.4-1.4 0l-2.8 2.8-1.5-1.4 2.8-2.8c0.4-0.4 0.4-1 0-1.4s-1-0.4-1.4 0l-2.8 2.8-1.4-1.4-1.4 1.4 0.7 0.7-1.4 1.4c-1.4 1.4-1.5 3.5-0.5 5.1-1.7 1.5-2.6 3.8-2.6 5.7h2c0-1.3 0.4-3.2 2.1-4.4 1.5 0.8 3.4 0.5 4.6-0.7l1.4-1.4 0.7 0.7 1.4-1.4-1.4-1.4 2.8-2.8c0.5-0.5 0.5-1.1 0.1-1.5z"></path>
</svg>
