<svg width="16" height="16" viewBox="0 0 16 16" fill="none" xmlns="http://www.w3.org/2000/svg">
<path d="M5 1H1V3H5V1Z" fill="#AFB1B3"/>
<path d="M15 1H6V3H15V1Z" fill="#AFB1B3"/>
<path d="M7 4H1V6H7V4Z" fill="#AFB1B3"/>
<path d="M15 4H8V6H15V4Z" fill="#AFB1B3"/>
<path d="M12 7H1V9H12V7Z" fill="#AFB1B3"/>
<path d="M15 7H13V9H15V7Z" fill="#AFB1B3"/>
<path d="M9 10H5V12H9V10Z" fill="#AFB1B3"/>
<path d="M15 10H10V12H15V10Z" fill="#AFB1B3"/>
<path d="M4 10H1V12H4V10Z" fill="#AFB1B3"/>
<path d="M11 13H6V15H11V13Z" fill="#AFB1B3"/>
<path d="M15 13H12V15H15V13Z" fill="#AFB1B3"/>
<path d="M5 13H1V15H5V13Z" fill="#AFB1B3"/>
</svg>
