<svg width="16" height="16" viewBox="0 0 16 16" fill="none" xmlns="http://www.w3.org/2000/svg">
<path d="M1 5L1 1L3 1L3 5L1 5Z" fill="#AFB1B3"/>
<path d="M4 6L4 1L6 1L6 6L4 6Z" fill="#AFB1B3"/>
<path d="M7 7L7 1L9 1L9 7L7 7Z" fill="#AFB1B3"/>
<path d="M10 4L10 1L12 1L12 4L10 4Z" fill="#AFB1B3"/>
<path d="M13 3L13 1L15 1L15 3L13 3Z" fill="#AFB1B3"/>
<path d="M13 14L13 6L15 6L15 14L13 14Z" fill="#AFB1B3"/>
<path d="M10 12L10 7L12 7L12 12L10 12Z" fill="#AFB1B3"/>
<path d="M13 5L13 4L15 4L15 5L13 5Z" fill="#AFB1B3"/>
<path d="M10 6L10 5L12 5L12 6L10 6Z" fill="#AFB1B3"/>
<path d="M4 8L4 7L6 7L6 8L4 8Z" fill="#AFB1B3"/>
<path d="M1 7L1 6L3 6L3 7L1 7Z" fill="#AFB1B3"/>
<path d="M7 9L7 8L9 8L9 9L7 9Z" fill="#AFB1B3"/>
<path d="M7 15L7 10L9 10L9 15L7 15Z" fill="#AFB1B3"/>
<path d="M1 12L1 8L3 8L3 12L1 12Z" fill="#AFB1B3"/>
<path d="M4 13L4 9L6 9L6 13L4 13Z" fill="#AFB1B3"/>
</svg>
