<svg width="16" height="16" viewBox="0 0 16 16" fill="none" xmlns="http://www.w3.org/2000/svg">
<path d="M3 1H1V3H3V1Z" fill="#9AA7B0"/>
<path d="M3 5H1V7H3V5Z" fill="#9AA7B0"/>
<path d="M3 9H1V11H3V9Z" fill="#9AA7B0"/>
<path d="M3 13H1V15H3V13Z" fill="#9AA7B0"/>
<path d="M7 13H5V15H7V13Z" fill="#9AA7B0"/>
<path fill-rule="evenodd" clip-rule="evenodd" d="M6 8V9.00001H5V10H6V11H7V10H8V9.00001H7V8H6Z" fill="#9AA7B0"/>
<path fill-rule="evenodd" clip-rule="evenodd" d="M5 2V3H4V4H5V5H6V4H7V3H6V2H5Z" fill="#9AA7B0"/>
<path fill-rule="evenodd" clip-rule="evenodd" d="M13 2V3H12V4H13V5H14V4H15V3H14V2H13Z" fill="#9AA7B0"/>
<path fill-rule="evenodd" clip-rule="evenodd" d="M13 7V7.99999H12V8.99999H13V10H14V8.99999H15V7.99999H14V7H13Z" fill="#9AA7B0"/>
<path fill-rule="evenodd" clip-rule="evenodd" d="M8.99999 5V6H8V7H8.99999V8H10V7H11V6H10V5H8.99999Z" fill="#9AA7B0"/>
<path d="M11 13H9V15H11V13Z" fill="#9AA7B0"/>
<path d="M15 13H13V15H15V13Z" fill="#9AA7B0"/>
</svg>
