<!--
  - Copyright 2022 Haulmont.
  -
  - Licensed under the Apache License, Version 2.0 (the "License");
  - you may not use this file except in compliance with the License.
  - You may obtain a copy of the License at
  -
  -     http://www.apache.org/licenses/LICENSE-2.0
  -
  - Unless required by applicable law or agreed to in writing, software
  - distributed under the License is distributed on an "AS IS" BASIS,
  - WITHOUT WARRANTIES OR CONDITIONS OF ANY KIND, either express or implied.
  - See the License for the specific language governing permissions and
  - limitations under the License.
  -->

<svg width="16" height="16" viewBox="0 0 16 16" fill="none" xmlns="http://www.w3.org/2000/svg">
<path d="M8 1.00122C6.65595 0.985616 5.31434 1.11978 4 1.40122C3.49504 1.49633 3.01712 1.70116 2.6 2.00122C2.5 2.10122 2.3 2.20122 2.2 2.40122C2.07454 2.53789 2.00341 2.71573 2 2.90122V13.0012C2.02071 13.2137 2.08908 13.4188 2.2 13.6012C2.3 13.8012 2.5 13.9012 2.6 14.0012C3.01712 14.3013 3.49504 14.5061 4 14.6012C5.31434 14.8826 6.65595 15.0168 8 15.0012C9.34405 15.0168 10.6857 14.8826 12 14.6012C12.505 14.5061 12.9829 14.3013 13.4 14.0012C13.5787 13.9226 13.7214 13.7799 13.8 13.6012C13.9109 13.4188 13.9793 13.2137 14 13.0012V2.90122C13.9966 2.71573 13.9255 2.53789 13.8 2.40122C13.7 2.20122 13.5 2.10122 13.4 2.00122C12.9829 1.70116 12.505 1.49633 12 1.40122C10.6857 1.11978 9.34405 0.985616 8 1.00122ZM8 1.60122C9.31099 1.58565 10.6195 1.71985 11.9 2.00122C12.3166 2.12481 12.7189 2.29242 13.1 2.50122C13.4 2.70122 13.4 2.80122 13.4 2.90122C13.3859 2.98714 13.3513 3.06838 13.2991 3.13803C13.2468 3.20768 13.1785 3.26367 13.1 3.30122C12.7189 3.51002 12.3166 3.67763 11.9 3.80122C10.6327 4.16374 9.31778 4.33232 8 4.30122C6.68901 4.31679 5.38053 4.18259 4.1 3.90122C3.71566 3.77655 3.34665 3.60881 3 3.40122C2.7 3.20122 2.6 3.10122 2.6 3.00122C2.6 2.90122 2.7 2.70122 3 2.50122C3.34665 2.29362 3.71566 2.12589 4.1 2.00122C5.38797 1.76913 6.69173 1.63541 8 1.60122ZM2.6 7.30122C3.0432 7.52745 3.51376 7.69551 4 7.80122C5.30618 8.13181 6.65422 8.26662 8 8.20122C9.34405 8.21682 10.6857 8.08266 12 7.80122C12.505 7.70611 12.9829 7.50128 13.4 7.20122V9.60122C13.3575 9.79628 13.2521 9.97197 13.1 10.1012C12.7189 10.31 12.3166 10.4776 11.9 10.6012C10.6195 10.8826 9.31099 11.0168 8 11.0012C6.68901 11.0168 5.38053 10.8826 4.1 10.6012C3.70841 10.4959 3.33679 10.327 3 10.1012C2.7 10.0012 2.6 9.80122 2.6 9.70122V7.30122Z" fill="#AFB1B3"/>
</svg>
