<svg width="16" height="16" viewBox="0 0 16 16" fill="none" xmlns="http://www.w3.org/2000/svg">
<path fill-rule="evenodd" clip-rule="evenodd" d="M3.83333 1.3725C5.03815 1.11121 6.26795 0.986647 7.5 1.00113C8.73205 0.986647 9.96189 1.11121 11.1667 1.3725C11.6296 1.4608 12.0677 1.65096 12.45 1.92954C12.4778 1.95765 12.5139 1.98576 12.5534 2.01645C12.6443 2.08711 12.7528 2.17144 12.8167 2.30091C12.9317 2.42779 12.9969 2.5929 13 2.76511V6H7.2375C6.5625 6 6 6.60811 6 7.33785V7.66806C5.26989 7.61491 4.54483 7.4967 3.83333 7.31432C3.38761 7.21618 2.95627 7.06015 2.55 6.85011V9.0783C2.55 9.17114 2.64167 9.35682 2.91667 9.44966C3.22539 9.6593 3.56604 9.8161 3.925 9.91387C4.6095 10.0662 5.3027 10.1721 6 10.231V13.6622C6 13.7608 6.01027 13.8571 6.02969 13.9501C5.29183 13.8924 4.55806 13.7847 3.83333 13.6275C3.37045 13.5392 2.93236 13.3491 2.55 13.0705C2.52225 13.0423 2.48609 13.0142 2.44661 12.9836C2.35572 12.9129 2.24725 12.8286 2.18333 12.6991C2.08166 12.5298 2.01898 12.3393 2 12.142V2.76511C2.00313 2.5929 2.06833 2.42779 2.18333 2.30091C2.24725 2.17144 2.35572 2.08711 2.44662 2.01645C2.48609 1.98576 2.52225 1.95765 2.55 1.92954C2.93236 1.65096 3.37045 1.4608 3.83333 1.3725ZM11.075 1.92954C9.90121 1.66832 8.70174 1.54372 7.5 1.55818C6.30075 1.58992 5.10564 1.71407 3.925 1.92954C3.57269 2.04529 3.23443 2.20101 2.91667 2.39375C2.64167 2.57943 2.55 2.76511 2.55 2.85795C2.55 2.95079 2.64167 3.04363 2.91667 3.22932C3.23443 3.42204 3.57269 3.57778 3.925 3.69352C5.09882 3.95475 6.29826 4.07934 7.5 4.06489C8.70797 4.09376 9.91331 3.93725 11.075 3.60068C11.4569 3.48594 11.8257 3.33033 12.175 3.13648C12.247 3.10161 12.3096 3.04963 12.3575 2.98497C12.4054 2.9203 12.4371 2.84488 12.45 2.76511C12.45 2.67227 12.45 2.57943 12.175 2.39375C11.8257 2.1999 11.4569 2.04429 11.075 1.92954Z" fill="#AFB1B3"/>
<path fill-rule="evenodd" clip-rule="evenodd" d="M14.0375 15H8.9625C8.4375 15 8 14.5271 8 13.9595V9.04055C8 8.47297 8.4375 8 8.9625 8H14.0375C14.5625 8 15 8.47297 15 9.04055V13.9595C15 14.5271 14.5625 15 14.0375 15ZM9 14L14 14V13.5L9 13.5V14ZM12 9L12 11H13.5L11.5 13L9.5 11H11L11 9L12 9Z" fill="#AFB1B3"/>
</svg>
