<!--
  - Copyright 2022 Haulmont.
  -
  - Licensed under the Apache License, Version 2.0 (the "License");
  - you may not use this file except in compliance with the License.
  - You may obtain a copy of the License at
  -
  -     http://www.apache.org/licenses/LICENSE-2.0
  -
  - Unless required by applicable law or agreed to in writing, software
  - distributed under the License is distributed on an "AS IS" BASIS,
  - WITHOUT WARRANTIES OR CONDITIONS OF ANY KIND, either express or implied.
  - See the License for the specific language governing permissions and
  - limitations under the License.
  -->

<svg width="16" height="16" viewBox="0 0 16 16" fill="none" xmlns="http://www.w3.org/2000/svg">
<path fill-rule="evenodd" clip-rule="evenodd" d="M6.32178 1.00001C6.31219 0.999998 6.3026 0.999998 6.29302 1.00001L6.32178 1.00001ZM5.91547 1.00469C4.87943 1.02948 3.84752 1.15255 2.83333 1.3725C2.37045 1.4608 1.93236 1.65096 1.55 1.92954C1.52225 1.95765 1.48609 1.98576 1.44662 2.01645C1.35572 2.08711 1.24725 2.17144 1.18333 2.30091C1.06833 2.42779 1.00313 2.5929 1 2.76511V12.142C1.01898 12.3393 1.08166 12.5298 1.18333 12.6991C1.24725 12.8286 1.35572 12.9129 1.44661 12.9836C1.48609 13.0142 1.52225 13.0423 1.55 13.0705C1.93236 13.3491 2.37045 13.5392 2.83333 13.6275C3.54834 13.7825 4.27215 13.8895 5 13.9477V10.231C4.3027 10.1721 3.6095 10.0662 2.925 9.91387C2.56604 9.8161 2.22539 9.6593 1.91667 9.44966C1.64167 9.35682 1.55 9.17114 1.55 9.0783V6.85011C1.95627 7.06015 2.38761 7.21618 2.83333 7.31432C3.54483 7.4967 4.26989 7.61491 5 7.66806V4.01065C4.3027 3.95172 3.6095 3.84585 2.925 3.69352C2.57269 3.57778 2.23443 3.42204 1.91667 3.22932C1.64167 3.04363 1.55 2.95079 1.55 2.85795C1.55 2.76511 1.64167 2.57943 1.91667 2.39375C2.23443 2.20101 2.57269 2.04529 2.925 1.92954C3.63984 1.79908 4.35999 1.7021 5.08315 1.63883C5.23357 1.31097 5.56765 1.04294 5.91547 1.00469ZM6.70716 1.00001C6.69746 0.999998 6.68776 0.999998 6.67807 1.00001L6.70716 1.00001Z" fill="#AFB1B3"/>
<path fill-rule="evenodd" clip-rule="evenodd" d="M13.0375 15H7.9625C7.4375 15 7 14.5271 7 13.9595V9.04055C7 8.47297 7.4375 8 7.9625 8H13.0375C13.5625 8 14 8.47297 14 9.04055V13.9595C14 14.5271 13.5625 15 13.0375 15ZM10 11V9H11V11H13V12H11V14H10V12H8V11H10Z" fill="#AFB1B3"/>
<path d="M10.4576 2.07153H9.21389L8.17743 3.75067C8.07379 3.86261 7.97015 4.0865 7.86651 4.31038V2.07153H6.83008V6.99699H7.86651V5.42981L8.28108 4.8701L9.42119 6.99699H10.6649L8.90295 4.19844L10.4576 2.07153Z" fill="#AFB1B3" stroke="#AFB1B3" stroke-width="0.2"/>
<path d="M13.7742 2.07153L13.1523 4.19844C12.945 4.75815 12.8414 5.31787 12.7378 5.98952C12.6341 5.31787 12.5305 4.75815 12.3232 4.19844L11.805 2.07153H10.6649L12.1159 6.99699H13.3596L14.8106 2.07153H13.7742Z" fill="#AFB1B3" stroke="#AFB1B3" stroke-width="0.2"/>
</svg>
