<?xml version="1.0" encoding="utf-8"?>
<!DOCTYPE svg PUBLIC "-//W3C//DTD SVG 1.1//EN" "http://www.w3.org/Graphics/SVG/1.1/DTD/svg11.dtd">
<svg version="1.1" xmlns="http://www.w3.org/2000/svg" xmlns:xlink="http://www.w3.org/1999/xlink" width="16" height="16" viewBox="0 0 16 16">
<path fill="#9AA7B0" d="M12 6v-4l-4-2-4 2v4l-4 2v5l4 2 4-2 4 2 4-2v-5zM8.090 1.12l2.91 1.44-2.6 1.3-2.91-1.44zM5 2.78l3 1.5v3.6l-3-1.5v-3.6zM4 13.88l-3-1.5v-3.6l3 1.5v3.6zM4.28 9.88l-2.88-1.46 2.6-1.3 2.88 1.44zM12 13.88l-3-1.5v-3.6l3 1.5v3.6zM12.28 9.88l-2.88-1.46 2.6-1.3 2.88 1.44z"></path>
</svg>
