<!--
  - Copyright 2025 Haulmont.
  -
  - Licensed under the Apache License, Version 2.0 (the "License");
  - you may not use this file except in compliance with the License.
  - You may obtain a copy of the License at
  -
  -     http://www.apache.org/licenses/LICENSE-2.0
  -
  - Unless required by applicable law or agreed to in writing, software
  - distributed under the License is distributed on an "AS IS" BASIS,
  - WITHOUT WARRANTIES OR CONDITIONS OF ANY KIND, either express or implied.
  - See the License for the specific language governing permissions and
  - limitations under the License.
  -->

<svg width="16" height="16" viewBox="0 0 16 16" fill="none" xmlns="http://www.w3.org/2000/svg">
<path fill="#AFB1B3" d="M0 4h4v-4h-4v4zM1 1h2v2h-2v-2z"/>
<path fill="#AFB1B3" d="M0 10h4v-4h-4v4zM1 7h2v2h-2v-2z"/>
<path fill="#AFB1B3" d="M0 16h4v-4h-4v4zM1 13h2v2h-2v-2z"/>
<path fill="#AFB1B3" d="M6 4h4v-4h-4v4zM7 1h2v2h-2v-2z"/>
<path fill="#AFB1B3" d="M6 10h4v-4h-4v4zM7 7h2v2h-2v-2z"/>
<path fill="#AFB1B3" d="M6 16h4v-4h-4v4zM7 13h2v2h-2v-2z"/>
<path fill="#AFB1B3" d="M12 0v4h4v-4h-4zM15 3h-2v-2h2v2z"/>
<path fill="#AFB1B3" d="M12 10h4v-4h-4v4zM13 7h2v2h-2v-2z"/>
<path fill="#AFB1B3" d="M12 16h4v-4h-4v4zM13 13h2v2h-2v-2z"/>
</svg>
