<svg width="16" height="16" viewBox="0 0 16 16" fill="none" xmlns="http://www.w3.org/2000/svg">
    <path d="M11 5.5H12M11 7.5H12M11.5 9V11" stroke="#AFB1B3"/>
    <rect x="8" y="3" width="1" height="1" fill="#AFB1B3"/>
    <rect x="6" y="3" width="1" height="1" fill="#AFB1B3"/>
    <rect x="4" y="3" width="1" height="1" fill="#AFB1B3"/>
    <rect x="4" y="3" width="1" height="1" fill="#AFB1B3"/>
    <rect x="2" y="3" width="1" height="2" fill="#AFB1B3"/>
    <rect x="5" y="12" width="1" height="1" fill="#AFB1B3"/>
    <path d="M7 12H8V13H7V12Z" fill="#AFB1B3"/>
    <rect x="4" y="12" width="1" height="2" transform="rotate(90 4 12)" fill="#AFB1B3"/>
    <rect x="2" y="10" width="1" height="1" fill="#AFB1B3"/>
    <rect x="2" y="8" width="1" height="1" fill="#AFB1B3"/>
    <rect x="2" y="6" width="1" height="1" fill="#AFB1B3"/>
    <path fill-rule="evenodd" clip-rule="evenodd" d="M10 3H13H14V4V12V13H13H10H9V12V10V4H10V10V12H13V4H10V3Z"
          fill="#AFB1B3"/>
</svg>
