<svg width="16" height="16" viewBox="0 0 16 16" fill="none" xmlns="http://www.w3.org/2000/svg">
<path d="M6.50808 9.57303H8.60126V10.5H4.92254V9.76264L6.80015 7.97191C7.2313 7.55758 7.3078 7.30478 7.3078 7.06601C7.3078 6.67978 7.04354 6.45506 6.52894 6.45506C6.11169 6.45506 5.75703 6.61657 5.52059 6.94663L4.70001 6.41292C5.07553 5.85815 5.75703 5.5 6.63325 5.5C7.71809 5.5 8.44131 6.0618 8.44131 6.95365C8.44131 7.43118 8.30919 7.86657 7.62768 8.50562L6.50808 9.57303Z" fill="#9AA7B0"/>
<path fill-rule="evenodd" clip-rule="evenodd" d="M11.5 1H10.5V0H13.5V1H12.5V15H13.5V16H12.5H11.5H10.5V15H11.5V1Z" fill="#9AA7B0"/>
<rect x="1" y="3" width="14" height="10" rx="2" stroke="#9AA7B0"/>
</svg>
