<svg width="16" height="16" viewBox="0 0 16 16" fill="none" xmlns="http://www.w3.org/2000/svg">
<path fill-rule="evenodd" clip-rule="evenodd" d="M11.5 1H10.5V0H13.5V1H12.5V15H13.5V16H12.5H11.5H10.5V15H11.5V1Z" fill="#AFB1B3"/>
<path d="M7.39558 6.19874V6.57432C7.09405 6.25662 6.67171 6.09486 6.19026 6.09486C5.15065 6.09486 4.40118 6.89859 4.40118 8.01083C4.40118 9.11669 5.14495 10.0437 6.19026 10.0437H6.34808C6.37323 10.0437 6.59411 10.03 6.85024 9.951C7.07885 9.88051 7.3476 9.75437 7.52559 9.52822C7.70626 9.72712 7.89039 9.83425 8.06833 9.89056C8.26388 9.95244 8.44763 9.95124 8.59694 9.95026L8.60013 9.95024L8.65535 9.95C9.3861 9.95 10.325 9.20128 10.325 7.76562C10.325 6.67829 9.93393 5.77881 9.25964 5.15154C8.5859 4.52478 7.6351 4.175 6.52399 4.175C5.38669 4.175 4.42351 4.5714 3.74447 5.24889C3.06546 5.92634 2.675 6.88045 2.675 7.98762C2.675 9.09858 3.06122 10.0587 3.73403 10.7414C4.40697 11.4242 5.36229 11.825 6.492 11.825C7.06894 11.825 7.74513 11.6913 8.24592 11.4286L8.3024 11.399L8.28224 11.3385L8.10634 10.8105L8.07807 10.7256L7.99943 10.7682C7.54128 11.0166 6.97063 11.1222 6.492 11.1222C5.56252 11.1222 4.79302 10.7988 4.25589 10.2486C3.71858 9.69811 3.40869 8.91536 3.40869 7.98762C3.40869 7.06858 3.72228 6.29004 4.26551 5.74151C4.80864 5.19309 5.58629 4.86955 6.52399 4.86955C7.4528 4.86955 8.22039 5.14574 8.75504 5.64199C9.28903 6.13762 9.59789 6.85938 9.59789 7.76562C9.59789 8.17326 9.51928 8.51925 9.35286 8.7612C9.18939 8.99887 8.93621 9.14375 8.5645 9.14375C8.46097 9.14375 8.38817 9.12286 8.33587 9.09121C8.28407 9.05985 8.24678 9.01457 8.21962 8.95578C8.16304 8.83331 8.15426 8.66228 8.15426 8.46875V6.19874V6.12374H8.07926H7.47058H7.39558V6.19874ZM7.2521 8.04364C7.2521 8.39153 7.14001 8.66575 6.96049 8.85252C6.781 9.03925 6.52914 9.1438 6.23917 9.1438C5.9402 9.1438 5.69028 9.03473 5.51472 8.84602C5.33879 8.65691 5.23261 8.3824 5.23261 8.04364C5.23261 7.70148 5.33885 7.42886 5.51441 7.24241C5.68967 7.05628 5.93956 6.95005 6.23917 6.95005C6.52948 6.95005 6.78135 7.05318 6.9607 7.23826C7.14004 7.42332 7.2521 7.69577 7.2521 8.04364Z" fill="#AFB1B3" stroke="#AFB1B3" stroke-width="0.15"/>
<rect x="1" y="3" width="14" height="10" rx="2" stroke="#AFB1B3"/>
</svg>
