<svg width="16" height="16" viewBox="0 0 16 16" fill="none" xmlns="http://www.w3.org/2000/svg">
<path d="M1.5 2C1.5 1.72386 1.72386 1.5 2 1.5H6C6.27614 1.5 6.5 1.72386 6.5 2V3C6.5 3.27614 6.27614 3.5 6 3.5H5C4.72386 3.5 4.5 3.72386 4.5 4V6C4.5 6.27614 4.27614 6.5 4 6.5H2C1.72386 6.5 1.5 6.27614 1.5 6V2Z" stroke="#AFB1B3"/>
<path d="M4.5 4C4.5 3.72386 4.72386 3.5 5 3.5H14C14.2761 3.5 14.5 3.72386 14.5 4V14C14.5 14.2761 14.2761 14.5 14 14.5H5C4.72386 14.5 4.5 14.2761 4.5 14V4Z" stroke="#AFB1B3"/>
<path d="M6.375 7.625V5.375H8.625V7.625H6.375Z" stroke="#AFB1B3" stroke-width="0.75"/>
<path d="M13 5.75H10V7.25H13V5.75Z" fill="#AFB1B3"/>
<path d="M6.375 11.625V9.375H8.625V11.625H6.375Z" stroke="#AFB1B3" stroke-width="0.75"/>
<path d="M13 9.75H10V11.25H13V9.75Z" fill="#AFB1B3"/>
</svg>
