<svg width="16" height="16" viewBox="0 0 16 16" fill="none" xmlns="http://www.w3.org/2000/svg">
<path d="M12 14V15H4V14H12ZM14 12V4C14 2.89543 13.1046 2 12 2H4C2.89543 2 2 2.89543 2 4V12C2 13.1046 2.89543 14 4 14V15C2.39489 15 1.08421 13.7394 1.00391 12.1543L1 12V4C1 2.34315 2.34315 1 4 1H12L12.1543 1.00391C13.7394 1.08421 15 2.39489 15 4V12L14.9961 12.1543C14.9184 13.6883 13.6883 14.9184 12.1543 14.9961L12 15V14C13.1046 14 14 13.1046 14 12Z" fill="#9AA7B0"/>
<path d="M1 5C1 4.44772 1.44772 4 2 4H14C14.5523 4 15 4.44772 15 5H1Z" fill="#9AA7B0"/>
<path d="M7 11V8.42574L5.89062 9.81246C5.79574 9.93107 5.65189 9.99996 5.5 9.99996C5.34811 9.99996 5.20426 9.93107 5.10938 9.81246L4 8.42574V11C4 11.2761 3.77614 11.5 3.5 11.5C3.22386 11.5 3 11.2761 3 11V6.99996C3 6.78762 3.13459 6.59857 3.33496 6.52828C3.53524 6.4582 3.75806 6.52175 3.89062 6.68746L5.5 8.69918L7.10938 6.68746C7.24194 6.52175 7.46476 6.4582 7.66504 6.52828C7.86541 6.59857 8 6.78762 8 6.99996V11C8 11.2761 7.77614 11.5 7.5 11.5C7.22386 11.5 7 11.2761 7 11Z" fill="#9AA7B0"/>
<path d="M12.6465 8.64645C12.8418 8.45118 13.1583 8.45118 13.3535 8.64645C13.5488 8.84171 13.5488 9.15822 13.3535 9.35348L11.3535 11.3535C11.1583 11.5487 10.8418 11.5487 10.6465 11.3535L8.64651 9.35348C8.45125 9.15822 8.45125 8.84171 8.64651 8.64645C8.84177 8.45118 9.15828 8.45118 9.35354 8.64645L11 10.2929L12.6465 8.64645Z" fill="#9AA7B0"/>
<path d="M10.5 11V7C10.5 6.72386 10.7239 6.5 11 6.5C11.2761 6.5 11.5 6.72386 11.5 7V11C11.5 11.2761 11.2761 11.5 11 11.5C10.7239 11.5 10.5 11.2761 10.5 11Z" fill="#9AA7B0"/>
</svg>
