<svg width="16" height="16" viewBox="0 0 16 16" fill="none" xmlns="http://www.w3.org/2000/svg">
<path d="M2.93875 12C2.42358 12 2 11.5956 2 11.0411C2 10.4634 2.42358 10.0822 2.93875 10.0822C3.45392 10.0822 3.8775 10.4634 3.8775 11.0411C3.8775 11.5956 3.45392 12 2.93875 12Z" fill="#9AA7B0"/>
<path d="M5.99702 4.73299C5.4704 4.73299 5.08117 4.35173 5.08117 3.8665C5.08117 3.38126 5.4704 3 5.99702 3C6.52363 3 6.91287 3.35815 6.91287 3.83184C6.91287 4.34018 6.53508 4.73299 5.99702 4.73299ZM5.27578 11.9191V5.74968H6.7068V11.9191H5.27578Z" fill="#9AA7B0"/>
<path d="M11.3898 12C9.45508 12 8.0813 10.6829 8.0813 8.8344C8.0813 6.98588 9.45508 5.68036 11.3898 5.68036C12.5804 5.68036 13.5306 6.17715 14 7.11297L12.901 7.75995C12.5346 7.17073 11.9851 6.90501 11.3784 6.90501C10.3251 6.90501 9.52377 7.64442 9.52377 8.8344C9.52377 10.0359 10.3251 10.7638 11.3784 10.7638C11.9851 10.7638 12.5346 10.4981 12.901 9.90886L14 10.5558C13.5306 11.4801 12.5804 12 11.3898 12Z" fill="#9AA7B0"/>
</svg>
