<!--
  - Copyright 2022 Haulmont.
  -
  - Licensed under the Apache License, Version 2.0 (the "License");
  - you may not use this file except in compliance with the License.
  - You may obtain a copy of the License at
  -
  -     http://www.apache.org/licenses/LICENSE-2.0
  -
  - Unless required by applicable law or agreed to in writing, software
  - distributed under the License is distributed on an "AS IS" BASIS,
  - WITHOUT WARRANTIES OR CONDITIONS OF ANY KIND, either express or implied.
  - See the License for the specific language governing permissions and
  - limitations under the License.
  -->

<svg width="16" height="16" viewBox="0 0 16 16" fill="none" xmlns="http://www.w3.org/2000/svg">
<path d="M12 3.5H4C2.61929 3.5 1.5 4.61929 1.5 6V10C1.5 11.3807 2.61929 12.5 4 12.5H12C13.3807 12.5 14.5 11.3807 14.5 10V6C14.5 4.61929 13.3807 3.5 12 3.5Z" stroke="#9AA7B0"/>
<path fill-rule="evenodd" clip-rule="evenodd" d="M6 6H4V7H6V10H7V7H9V6H7H6Z" fill="#9AA7B0"/>
<path fill-rule="evenodd" clip-rule="evenodd" d="M11 2H10V1H13V2H12V14H13V15H12H11H10V14H11V2Z" fill="#9AA7B0"/>
</svg>
