<svg width="16" height="16" viewBox="0 0 16 16" fill="none" xmlns="http://www.w3.org/2000/svg">
<path fill-rule="evenodd" clip-rule="evenodd" d="M1 3V4.5V5V12C1 13.1046 1.89543 14 3 14H5C6.10457 14 7 13.1046 7 12V5V4.5V3H6V2H2V3H1ZM2 11.8V5H6V11.8C6 12.4627 5.46274 13 4.8 13H3.2C2.53726 13 2 12.4627 2 11.8ZM9 12C9 13.1046 9.89543 14 11 14H13C14.1046 14 15 13.1046 15 12V5V4.5V3H14V2H10V3H9V4.5V5V12ZM10 5H14V11.8C14 12.4627 13.4627 13 12.8 13H11.2C10.5373 13 10 12.4627 10 11.8V5ZM3 6H5V7H3V6ZM5 8H3V9H5V8ZM3 10H5V11H3V10ZM11 6H13V7H11V6Z" fill="#9AA7B0"/>
</svg>
