<svg width="1920" height="1080" viewBox="0 0 1920 1080" fill="none" xmlns="http://www.w3.org/2000/svg">
    <g clip-path="url(#clip0)">
        <rect width="1920" height="1080" fill="white"/>
        <rect id="loginBackMain" x="-44" width="1964" height="1080" fill="#6F5CC3"/>
        <path id="loginBackRight" opacity="0.320382" fill-rule="evenodd" clip-rule="evenodd"
              d="M1841.37 1174.18C1887.53 1189.09 1939.94 1187.1 1976.18 1128.48C2011.12 1072.33 2021.48 979.925 2026.44 894.472C2030.32 830.382 2032.04 762.814 2018.67 704.685C2009.4 663.946 1993.22 630.659 1982 592.403C1942.53 458.261 1966.9 285.367 2006.16 146.753C2024.5 81.6694 2046.06 19.0697 2060.08 -49.4919C2074.11 -118.053 2079.93 -196.055 2066.12 -263.126C2052.32 -330.197 2021.04 -377.892 1987.4 -410.682C1919.02 -476.76 1839.43 -490.174 1761.78 -494.148C1590.08 -503.588 1417.96 -475.269 1246.26 -446.95C1182.85 -436.517 1119 -426.084 1056.67 -397.765C1022.16 -382.363 986.567 -359.013 961.762 -309.827C930.486 -247.227 923.8 -146.372 946.232 -73.8362C983.763 47.3886 1083.63 68.752 1110.59 199.913C1125.48 272.449 1112.32 355.916 1093.12 425.968C1051.92 577.002 981.175 712.635 979.449 880.561C978.371 995.824 1014.61 1107.61 1068.96 1156.79C1126.12 1208.46 1769.76 1150.34 1841.37 1174.18Z"
              fill="#A9CADE"/>
        <path id="loginBackBottom" opacity="0.36642" fill-rule="evenodd" clip-rule="evenodd"
              d="M1280 1163.8C1280 1163.8 1333.32 896.342 1725.86 831.138C2118.4 765.934 2424.97 764.173 2475.87 480.758C2526.77 197.342 2559 1242 2559 1242L1280 1163.8Z"
              fill="#6F5CC3"/>
    </g>
    <defs>
        <clipPath id="clip0">
            <rect width="1920" height="1080" fill="white"/>
        </clipPath>
    </defs>
</svg>
