<svg width="16" height="16" viewBox="0 0 16 16" fill="none" xmlns="http://www.w3.org/2000/svg">
<path fill-rule="evenodd" clip-rule="evenodd" d="M9.0701 13.9049C11.8732 13.4002 14 10.9485 14 8C14 4.68629 11.3137 2 8 2C5.05153 2 2.5998 4.12675 2.09515 6.9299C1.67768 7.22838 1.30805 7.5895 1 7.99951C1.00026 4.13374 4.13417 1 8 1C11.866 1 15 4.13401 15 8C15 11.8658 11.8663 14.9997 8.00049 15C8.4105 14.6919 8.77161 14.3223 9.0701 13.9049Z" fill="#AFB1B3"/>
<mask id="mask0" mask-type="alpha" maskUnits="userSpaceOnUse" x="1" y="1" width="14" height="14">
<path d="M14.5 8C14.5 11.5899 11.5899 14.5 8 14.5C4.41015 14.5 1.5 11.5899 1.5 8C1.5 4.41015 4.41015 1.5 8 1.5C11.5899 1.5 14.5 4.41015 14.5 8Z" fill="#C4C4C4" stroke="#9AA7B0"/>
</mask>
<g mask="url(#mask0)">
<path fill-rule="evenodd" clip-rule="evenodd" d="M2.93021 6.44718C2.90606 6.4374 2.88207 6.42756 2.85822 6.41764C2.18874 6.13915 1.61427 5.79484 1.1995 5.38694C0.783003 4.97733 0.5 4.47357 0.5 3.89706C0.5 3.32054 0.783003 2.81678 1.1995 2.40718C1.61427 1.99928 2.18873 1.65496 2.85822 1.37647C4.1994 0.818588 6.01758 0.485291 8 0.485291C9.98242 0.485291 11.8006 0.818588 13.1418 1.37647C13.8113 1.65496 14.3857 1.99927 14.8005 2.40717C15.217 2.81678 15.5 3.32054 15.5 3.89706C15.5 4.47357 15.217 4.97733 14.8005 5.38694C14.3857 5.79484 13.8113 6.13915 13.1418 6.41764C12.6469 6.6235 12.087 6.79878 11.4779 6.93802C11.4925 7.21439 11.5 7.49517 11.5 7.77941C11.5 8.74297 11.4141 9.66694 11.2562 10.5133C11.9515 10.6595 12.5874 10.8517 13.1418 11.0824C13.8113 11.3608 14.3857 11.7052 14.8005 12.1131C15.217 12.5227 15.5 13.0264 15.5 13.6029C15.5 14.1795 15.217 14.6832 14.8005 15.0928C14.3857 15.5007 13.8113 15.845 13.1418 16.1235C11.8006 16.6814 9.98242 17.0147 8 17.0147C6.01758 17.0147 4.1994 16.6814 2.85822 16.1235C2.18874 15.845 1.61427 15.5007 1.1995 15.0928C0.783003 14.6832 0.5 14.1795 0.5 13.6029C0.5 13.4832 0.512212 13.3666 0.535297 13.2533C1.35931 14.8828 3.04919 16 5 16C5.35287 16 5.6972 15.9634 6.02942 15.8939C6.64995 15.9721 7.3115 16.0147 8 16.0147C9.88357 16.0147 11.5654 15.6962 12.7577 15.2002C13.355 14.9518 13.8056 14.6687 14.0993 14.3798C14.3913 14.0927 14.5 13.8305 14.5 13.6029C14.5 13.3754 14.3913 13.1131 14.0993 12.826C13.8056 12.5372 13.355 12.2541 12.7577 12.0057C12.2609 11.799 11.6792 11.6232 11.0333 11.4884C10.9049 11.9572 10.7523 12.3923 10.5787 12.7855C10.2905 13.4383 9.93436 13.9976 9.5136 14.4007C9.09034 14.8061 8.57803 15.0735 8 15.0735C7.96764 15.0735 7.93549 15.0727 7.90355 15.071C9.02788 14.2677 9.80545 13.0102 9.96826 11.5665C9.99353 11.4862 10.018 11.4044 10.0418 11.3211C10.0246 11.3189 10.0075 11.3166 9.99027 11.3145C9.99673 11.2105 10 11.1056 10 11C10 10.7632 9.98354 10.5303 9.95172 10.3024C10.059 10.3149 10.1654 10.3284 10.2707 10.3429C10.4174 9.5615 10.5 8.69525 10.5 7.77941C10.5 7.55851 10.4952 7.3405 10.4858 7.12586C9.81714 7.22788 9.10583 7.28951 8.36854 7.30497C7.84973 6.83173 7.2309 6.4663 6.54747 6.24407C7.01383 6.28636 7.4998 6.30882 8 6.30882C8.85272 6.30882 9.66408 6.24354 10.4074 6.12607C10.2762 4.97981 10.0127 3.96701 9.66393 3.17721C9.40925 2.60045 9.11894 2.16484 8.82187 1.88028C8.5273 1.59812 8.25039 1.48529 8 1.48529C7.74978 1.48548 7.47244 1.59837 7.17813 1.88028C6.88106 2.16484 6.59075 2.60045 6.33607 3.17721C5.99649 3.94626 5.73774 4.92675 5.60321 6.03602C5.40546 6.01224 5.20416 6 5 6C4.26177 6 3.56092 6.15999 2.93021 6.44718ZM4.60862 5.93114C4.10462 5.80946 3.64547 5.66204 3.24228 5.49433C2.64502 5.24589 2.19436 4.96277 1.90069 4.67396C1.60875 4.38685 1.5 4.1246 1.5 3.89706C1.5 3.66951 1.60875 3.40726 1.90069 3.12016C2.19436 2.83134 2.64502 2.54822 3.24228 2.29978C4.01464 1.9785 4.99241 1.73169 6.09735 1.59767C5.84168 1.93399 5.61599 2.33233 5.42129 2.77328C5.03482 3.64851 4.75277 4.73167 4.60862 5.93114ZM11.3914 5.93114C11.8954 5.80946 12.3545 5.66204 12.7577 5.49433C13.355 5.24589 13.8056 4.96277 14.0993 4.67396C14.3913 4.38685 14.5 4.1246 14.5 3.89706C14.5 3.66951 14.3913 3.40726 14.0993 3.12016C13.8056 2.83134 13.355 2.54822 12.7577 2.29978C11.9854 1.9785 11.0076 1.73169 9.90265 1.59767C10.1583 1.93399 10.384 2.33233 10.5787 2.77328C10.9652 3.64851 11.2472 4.73167 11.3914 5.93114Z" fill="#AFB1B3"/>
</g>
<path d="M8.5 11C8.5 12.933 6.933 14.5 5 14.5C3.067 14.5 1.5 12.933 1.5 11C1.5 9.067 3.067 7.5 5 7.5C6.933 7.5 8.5 9.067 8.5 11Z" stroke="#AFB1B3"/>
<path d="M5.06897 9.111V11.1016L6.12281 12.1342" stroke="#AFB1B3"/>
</svg>
