<svg width="16" height="16" viewBox="0 0 16 16" fill="none" xmlns="http://www.w3.org/2000/svg">
<path fill-rule="evenodd" clip-rule="evenodd" d="M2 6C2 4.89543 2.89543 4 4 4H12C13.1046 4 14 4.89543 14 6V7.72772L15 7.91971V6C15 4.34315 13.6569 3 12 3H4C2.34315 3 1 4.34315 1 6V10C1 11.6569 2.34315 13 4 13H6.28843L6.33421 12.7623L5.57078 12H4C2.89543 12 2 11.1046 2 10V6ZM8.40129 12C8.48378 12.0826 8.48378 12.0865 8.48378 12.1765L8.32519 13H12C12.3913 13 12.7651 12.9251 13.1078 12.7888L13.008 12.2706C13.008 12.1765 13.008 12.0824 13.1023 12.0824L14.8931 10.2941C15.0817 10.1059 14.9874 9.91763 14.7989 9.91763L14 9.76425V10C14 11.1046 13.1046 12 12 12H8.40129Z" fill="#9AA7B0"/>
<path d="M8.29935 15H8.39361L10.6557 13.7765H10.75H10.8443L13.1064 15H13.2006C13.3892 15 13.4834 14.9059 13.4834 14.7176L13.0121 12.2706C13.0121 12.1765 13.0121 12.0824 13.1064 12.0824L14.8972 10.2941C15.0858 10.1059 14.9915 9.9176 14.803 9.9176L12.3523 9.4471C12.2581 9.4471 12.1638 9.3529 12.1638 9.3529L11.0328 7.09412C11.0328 7 10.9385 7 10.8443 7C10.75 7 10.6557 7 10.6557 7.09412L9.4304 9.3529C9.4304 9.4471 9.3362 9.4471 9.2419 9.4471L6.69701 9.8235C6.5085 9.8235 6.41424 10.1059 6.60275 10.2L8.39361 11.9882C8.48787 12.0824 8.48787 12.0824 8.48787 12.1765L8.01659 14.6235C8.01659 14.9059 8.2051 15 8.29935 15Z" fill="#9AA7B0"/>
</svg>
