<svg width="16" height="16" viewBox="0 0 16 16" fill="none" xmlns="http://www.w3.org/2000/svg">
<path fill-rule="evenodd" clip-rule="evenodd" d="M15 2H6.5C7.32842 2 8 2.67158 8 3.5C8 4.32842 7.32842 5 6.5 5H14V12.8C14 13.4627 13.4627 14 12.8 14H3.2C2.53726 14 2 13.4627 2 12.8V5H4.5C3.67158 5 3 4.32842 3 3.5C3 2.67158 3.67158 2 4.5 2H1V5V13C1 14.1046 1.89543 15 3 15H13C14.1046 15 15 14.1046 15 13L15 5V2ZM4.5 3C4.22386 3 4 3.22386 4 3.5C4 3.77614 4.22386 4 4.5 4H6.5C6.77614 4 7 3.77614 7 3.5C7 3.22386 6.77614 3 6.5 3H4.5ZM5 10V12H6V10H8V9H6V7H5V9H3V10H5ZM9 12H13V13H9V12ZM13 10H12V11H13V10ZM9 10H10V11H9V10ZM13 8H12V9H13V8ZM9 8H10V9H9V8ZM13 6H9V7H13V6Z" fill="#9AA7B0"/>
</svg>
