<svg width="16" height="16" viewBox="0 0 16 16" fill="none" xmlns="http://www.w3.org/2000/svg">
<rect x="4" y="1" width="1" height="2" fill="#AFB1B3"/>
<rect x="11" y="1" width="1" height="2" fill="#AFB1B3"/>
<path fill-rule="evenodd" clip-rule="evenodd" d="M10 3H6V4H3V3H2C1.44772 3 1 3.44772 1 4V5V6V14C1 14.5523 1.44772 15 2 15H14C14.5523 15 15 14.5523 15 14V6V5V4C15 3.44772 14.5523 3 14 3H13V4H10V3ZM14 6H2V14H14V6Z" fill="#AFB1B3"/>
<path d="M5.57251 9.53073H6.10357C6.52441 9.53073 6.73483 9.32476 6.73483 8.91283C6.73483 8.75251 6.68473 8.62224 6.58453 8.52204C6.48433 8.41962 6.34294 8.3684 6.16035 8.3684C6.01116 8.3684 5.8809 8.41182 5.76957 8.49866C5.66046 8.5855 5.60591 8.6935 5.60591 8.82265H4.48032C4.48032 8.56658 4.55158 8.33834 4.69408 8.13794C4.83659 7.93754 5.03365 7.78167 5.28527 7.67034C5.53911 7.55678 5.81744 7.5 6.12027 7.5C6.66135 7.5 7.08665 7.62358 7.39616 7.87074C7.70566 8.1179 7.86042 8.45747 7.86042 8.88945C7.86042 9.09875 7.79584 9.29693 7.6667 9.48397C7.53978 9.66878 7.35385 9.81908 7.10891 9.93487C7.36721 10.0284 7.56984 10.1709 7.7168 10.3624C7.86376 10.5517 7.93724 10.7866 7.93724 11.0671C7.93724 11.5013 7.77024 11.8487 7.43624 12.1092C7.10223 12.3697 6.66358 12.5 6.12027 12.5C5.80186 12.5 5.50571 12.4399 5.23183 12.3196C4.96017 12.1972 4.7542 12.0291 4.61392 11.8153C4.47364 11.5993 4.4035 11.3544 4.4035 11.0805H5.53577C5.53577 11.2297 5.59589 11.3588 5.71613 11.4679C5.83637 11.577 5.98444 11.6316 6.16035 11.6316C6.35852 11.6316 6.51662 11.577 6.63463 11.4679C6.75265 11.3566 6.81165 11.2152 6.81165 11.0438C6.81165 10.7988 6.75042 10.6251 6.62795 10.5227C6.50549 10.4203 6.33626 10.3691 6.12027 10.3691H5.57251V9.53073Z" fill="#AFB1B3"/>
<path d="M11 12.4332H9.8711V8.83935L8.76222 9.16333V8.30828L10.8965 7.57014H11V12.4332Z" fill="#AFB1B3"/>
</svg>
