<svg width="16" height="16" viewBox="0 0 16 16" fill="none" xmlns="http://www.w3.org/2000/svg">
<path fill-rule="evenodd" clip-rule="evenodd" d="M8 5L5 8L8 11L11 8L8 5Z" fill="#AFB1B3"/>
<path fill-rule="evenodd" clip-rule="evenodd" d="M10.625 14C13.2894 12.5915 15 10.4285 15 8C15 5.5715 13.2894 3.41 10.625 2V2.621C12.4275 4.0085 13.5417 5.906 13.5417 8C13.5417 10.0955 12.4275 11.9915 10.625 13.379V14ZM5.375 14C2.71062 12.5915 1 10.4285 1 8C1 5.5715 2.71062 3.41 5.375 2V2.621C3.5725 4.0085 2.45833 5.906 2.45833 8C2.45833 10.0955 3.5725 11.9915 5.375 13.379V14Z" fill="#AFB1B3"/>
</svg>
