<svg width="16" height="16" viewBox="0 0 16 16" fill="none" xmlns="http://www.w3.org/2000/svg">
<path fill-rule="evenodd" clip-rule="evenodd" d="M12.92 9.72531C12.92 8.98244 12.596 8.31525 12.0816 7.85735L12.4981 6.90875C13.3606 7.54622 13.92 8.57045 13.92 9.72531C13.92 10.8802 13.3607 11.9044 12.4981 12.5419L12.0816 11.5933C12.596 11.1354 12.92 10.4682 12.92 9.72531ZM6.91998 9.72531C6.91998 8.57045 7.47932 7.54622 8.34187 6.90875L8.75841 7.85735C8.244 8.31525 7.91998 8.98244 7.91998 9.72531C7.91998 10.4682 8.24399 11.1354 8.7584 11.5933L8.34186 12.5419C7.47932 11.9044 6.91998 10.8802 6.91998 9.72531ZM5.91998 9.72531C5.91998 8.15997 6.71923 6.7813 7.9319 5.97514L7.52482 5.0481C5.96125 6.01799 4.91998 7.75005 4.91998 9.72531C4.91998 11.7006 5.96125 13.4326 7.52482 14.4025L7.93189 13.4755C6.71923 12.6693 5.91998 11.2907 5.91998 9.72531ZM14.92 9.72531C14.92 8.15997 14.1207 6.7813 12.9081 5.97514L13.3151 5.0481C14.8787 6.01799 15.92 7.75005 15.92 9.72531C15.92 11.7006 14.8787 13.4326 13.3152 14.4025L12.9081 13.4755C14.1207 12.6693 14.92 11.2907 14.92 9.72531ZM11.92 9.72534C11.92 10.3785 11.5026 10.9341 10.92 11.14V15.1605H9.91998V11.14C9.33739 10.9341 8.91998 10.3785 8.91998 9.72534C8.91998 8.89691 9.59156 8.22534 10.42 8.22534C11.2484 8.22534 11.92 8.89691 11.92 9.72534Z" fill="#9AA7B0"/>
<path fill-rule="evenodd" clip-rule="evenodd" d="M2.71399 1.34384C3.84037 1.10265 4.99012 0.987673 6.14197 1.00105C7.29381 0.987673 8.4436 1.10265 9.56995 1.34384C10.0027 1.42535 10.4123 1.60089 10.7697 1.85804C10.7957 1.88399 10.8295 1.90994 10.8664 1.93826C10.9514 2.00349 11.0528 2.08133 11.1125 2.20084C11.2201 2.31796 11.281 2.47037 11.2839 2.62934V7.1866L11.2109 7.35304C11.069 7.30579 10.9216 7.27089 10.7697 7.24964V6.31441C10.4123 6.57156 10.0027 6.7471 9.56995 6.82861C9.51775 6.83979 9.4655 6.85069 9.4132 6.86133L8.03101 3.71366C8.52114 3.64174 9.00664 3.53725 9.48425 3.40063C9.84127 3.29471 10.186 3.15107 10.5126 2.97213C10.5799 2.93995 10.6384 2.89197 10.6833 2.83228C10.728 2.77259 10.7577 2.70297 10.7697 2.62934C10.7697 2.54364 10.7697 2.45794 10.5126 2.28654C10.186 2.1076 9.84127 1.96396 9.48425 1.85804C8.38687 1.61691 7.26548 1.5019 6.14197 1.51524C5.02079 1.54454 3.90347 1.65914 2.79969 1.85804C2.47031 1.96488 2.15407 2.10863 1.85699 2.28654C1.5999 2.45794 1.5142 2.62934 1.5142 2.71503C1.5142 2.80073 1.5999 2.88643 1.85699 3.05783C2.15407 3.23574 2.47031 3.37949 2.79969 3.48633C3.8971 3.72746 5.01846 3.84247 6.14197 3.82913C6.66676 3.84151 7.19102 3.81695 7.71091 3.75592L6.9977 4.19833C5.88106 4.89099 4.98883 5.91403 4.45832 7.13149C3.87085 7.07495 3.28771 6.97382 2.71399 6.82861C2.29728 6.73802 1.89402 6.59399 1.5142 6.40011V8.4569C1.5142 8.5426 1.5999 8.71398 1.85699 8.79968C2.14562 8.99319 2.4641 9.13794 2.79969 9.22818C3.17283 9.31018 3.54874 9.37759 3.92656 9.43033C3.92219 9.52812 3.91998 9.62647 3.91998 9.72534C3.91998 10.901 4.23231 12.0036 4.7779 12.9547C4.08453 12.9016 3.39499 12.802 2.71399 12.6562C2.28124 12.5747 1.87167 12.3991 1.5142 12.142C1.48825 12.116 1.45444 12.0901 1.41754 12.0617C1.33256 11.9965 1.23115 11.9187 1.1714 11.7992C1.07634 11.6428 1.01775 11.4671 1 11.285V2.62934C1.00292 2.47037 1.06388 2.31796 1.1714 2.20084C1.23115 2.08133 1.33256 2.00349 1.41754 1.93826C1.45445 1.90994 1.48825 1.88399 1.5142 1.85804C1.87167 1.60089 2.28124 1.42535 2.71399 1.34384Z" fill="#9AA7B0"/>
</svg>
