<svg xmlns="http://www.w3.org/2000/svg" viewBox="2.1 0.6 44 44" width="24" height="24">
    <path fill="currentColor" d="M23.82,20.50 Q26.00,10.63 22.80,1.03 Q20.61,10.91 23.82,20.50 Z
                                 M26.25,21.32 Q32.52,18.05 34.64,11.31 Q28.38,14.58 26.25,21.32 Z
                                 M27.29,22.80 Q36.83,22.20 44.53,16.53 Q34.99,17.13 27.29,22.80 Z
                                 M27.20,25.42 Q31.64,30.36 38.29,30.36 Q33.84,25.43 27.20,25.42 Z
                                 M26.25,26.68 Q29.56,34.83 37.01,39.50 Q33.70,31.36 26.25,26.68 Z
                                 M23.88,27.50 Q20.93,34.62 23.37,41.93 Q26.32,34.81 23.88,27.50 Z
                                 M22.20,27.00 Q14.74,34.16 11.92,44.11 Q19.37,36.95 22.20,27.00 Z
                                 M20.62,24.91 Q13.84,23.93 8.45,28.17 Q15.23,29.14 20.62,24.91 Z
                                 M20.65,22.98 Q13.00,17.81 3.76,17.81 Q11.42,22.98 20.65,22.98 Z
                                 M22.20,21.00 Q20.67,13.22 14.52,8.23 Q16.05,16.00 22.20,21.00 Z"/>
    <circle cx="24" cy="24" r="2.2" fill="currentColor"/>
</svg>
