<svg width="16" height="16" viewBox="0 0 16 16" fill="none" xmlns="http://www.w3.org/2000/svg">
    <g clip-path="url(#clip0_2348_285)">
        <path d="M0.758523 12V3.27273H6.53693V4.79403H2.60369V6.87358H6.15341V8.39489H2.60369V12H0.758523ZM8.14453 7.63636C8.14453 6.57955 8.28516 5.60653 8.56641 4.71733C8.8505 3.82812 9.28374 3.00426 9.86612 2.24574H11.6005C11.3789 2.52699 11.1729 2.87074 10.9826 3.27699C10.7923 3.6804 10.6261 4.12358 10.484 4.60653C10.342 5.08949 10.2312 5.58949 10.1516 6.10653C10.0721 6.62074 10.0323 7.13068 10.0323 7.63636C10.0323 8.30966 10.1005 8.99006 10.2369 9.67756C10.3761 10.3622 10.5636 10.9986 10.7994 11.5866C11.038 12.1747 11.305 12.6562 11.6005 13.0312H9.86612C9.28374 12.2727 8.8505 11.4489 8.56641 10.5597C8.28516 9.67045 8.14453 8.69602 8.14453 7.63636ZM15.7138 7.63636C15.7138 8.69602 15.5717 9.67045 15.2876 10.5597C15.0064 11.4489 14.5746 12.2727 13.9922 13.0312H12.2578C12.4794 12.75 12.6854 12.4062 12.8757 12C13.0661 11.5938 13.2322 11.1506 13.3743 10.6705C13.5163 10.1875 13.6271 9.6875 13.7067 9.17045C13.7862 8.65341 13.826 8.14205 13.826 7.63636C13.826 6.96307 13.7564 6.28409 13.6172 5.59943C13.4808 4.91193 13.2933 4.27557 13.0547 3.69034C12.8189 3.10227 12.5533 2.62074 12.2578 2.24574H13.9922C14.5746 3.00426 15.0064 3.82812 15.2876 4.71733C15.5717 5.60653 15.7138 6.57955 15.7138 7.63636Z" fill="#AFB1B3"/>
    </g>
    <defs>
        <clipPath id="clip0_2348_285">
            <rect width="16" height="16" fill="white"/>
        </clipPath>
    </defs>
</svg>