<svg width="16" height="16" viewBox="0 0 16 16" fill="none" xmlns="http://www.w3.org/2000/svg">
    <path d="M14 1L14 5H15V1L14 1Z" fill="#9AA7B0"/>
    <path d="M12 1V2L13 2V1L12 1Z" fill="#9AA7B0"/>
    <path d="M11 4V5H12V4H11Z" fill="#9AA7B0"/>
    <path d="M13 4V5H14V4H13Z" fill="#9AA7B0"/>
    <path d="M10 1V2L11 2V1L10 1Z" fill="#9AA7B0"/>
    <path d="M9 4V5H10V4H9Z" fill="#9AA7B0"/>
    <path d="M8 1V2L9 2V1L8 1Z" fill="#9AA7B0"/>
    <path d="M7 4V5H8V4H7Z" fill="#9AA7B0"/>
    <path d="M6 1V2L7 2V1L6 1Z" fill="#9AA7B0"/>
    <path d="M5 4V5H6V4H5Z" fill="#9AA7B0"/>
    <path d="M4 1V2L5 2V1L4 1Z" fill="#9AA7B0"/>
    <path d="M2 1L2 2L3 2V1L2 1Z" fill="#9AA7B0"/>
    <path d="M3 4L3 5H4V4H3Z" fill="#9AA7B0"/>
    <path d="M1 1L1 5H2L2 1L1 1Z" fill="#9AA7B0"/>
    <path d="M14 11L14 15H15V11H14Z" fill="#9AA7B0"/>
    <path d="M12 11V12H13V11H12Z" fill="#9AA7B0"/>
    <path d="M11 14V15H12V14H11Z" fill="#9AA7B0"/>
    <path d="M13 14V15H14V14H13Z" fill="#9AA7B0"/>
    <path d="M10 11V12H11V11H10Z" fill="#9AA7B0"/>
    <path d="M9 14V15H10V14H9Z" fill="#9AA7B0"/>
    <path d="M8 11V12H9V11H8Z" fill="#9AA7B0"/>
    <path d="M7 14V15H8V14H7Z" fill="#9AA7B0"/>
    <path d="M6 11V12H7V11H6Z" fill="#9AA7B0"/>
    <path d="M5 14V15H6V14H5Z" fill="#9AA7B0"/>
    <path d="M4 11V12H5V11H4Z" fill="#9AA7B0"/>
    <path d="M3 14L3 15H4V14H3Z" fill="#9AA7B0"/>
    <path d="M2 11L2 12H3V11H2Z" fill="#9AA7B0"/>
    <path d="M1 11L1 15H2L2 11H1Z" fill="#9AA7B0"/>
    <path d="M1.5 6.5L1.5 9.5L14.5 9.5V6.5L1.5 6.5Z" stroke="#9AA7B0"/>
</svg>
