<svg width="16" height="16" viewBox="0 0 16 16" fill="none" xmlns="http://www.w3.org/2000/svg">
    <path d="M14 1V5H15V1H14Z" fill="#AFB1B3"/>
    <path d="M12 1V2H13V1H12Z" fill="#AFB1B3"/>
    <path d="M11 4V5H12V4H11Z" fill="#AFB1B3"/>
    <path d="M13 4V5H14V4H13Z" fill="#AFB1B3"/>
    <path d="M10 1V2H11V1H10Z" fill="#AFB1B3"/>
    <path d="M9 4V5H10V4H9Z" fill="#AFB1B3"/>
    <path d="M8 1V2H9V1H8Z" fill="#AFB1B3"/>
    <path d="M7 4V5H8V4H7Z" fill="#AFB1B3"/>
    <path d="M6 1V2H7V1H6Z" fill="#AFB1B3"/>
    <path d="M5 4V5H6V4H5Z" fill="#AFB1B3"/>
    <path d="M4 1V2H5V1H4Z" fill="#AFB1B3"/>
    <path d="M2 1V2H3V1H2Z" fill="#AFB1B3"/>
    <path d="M3 4V5H4V4H3Z" fill="#AFB1B3"/>
    <path d="M1 1L1 5H2V1H1Z" fill="#AFB1B3"/>
    <path d="M14 11V15H15V11H14Z" fill="#AFB1B3"/>
    <path d="M12 11V12H13V11H12Z" fill="#AFB1B3"/>
    <path d="M11 14V15H12V14H11Z" fill="#AFB1B3"/>
    <path d="M13 14V15H14V14H13Z" fill="#AFB1B3"/>
    <path d="M10 11V12H11V11H10Z" fill="#AFB1B3"/>
    <path d="M9 14V15H10V14H9Z" fill="#AFB1B3"/>
    <path d="M8 11V12H9V11H8Z" fill="#AFB1B3"/>
    <path d="M7 14V15H8V14H7Z" fill="#AFB1B3"/>
    <path d="M6 11V12H7V11H6Z" fill="#AFB1B3"/>
    <path d="M5 14V15H6V14H5Z" fill="#AFB1B3"/>
    <path d="M4 11V12H5V11H4Z" fill="#AFB1B3"/>
    <path d="M3 14V15H4V14H3Z" fill="#AFB1B3"/>
    <path d="M2 11V12H3V11H2Z" fill="#AFB1B3"/>
    <path d="M1 11L1 15H2V11H1Z" fill="#AFB1B3"/>
    <path d="M1.5 6.5L1.5 9.5H14.5V6.5L1.5 6.5Z" stroke="#AFB1B3"/>
</svg>
