<svg width="38" height="38" viewBox="0 0 38 38" fill="none" xmlns="http://www.w3.org/2000/svg">
    <path
            d="M13.8205 2.64855L7.33011 9.13895L9.71136 11.5202L16.2018 5.0298C17.7889 3.44265 20.3363 3.41231 21.9764 4.91232L23.9484 6.85824L26.323 4.48334L24.3643 2.52437C21.4098 -0.289033 16.7211 -0.251991 13.8205 2.64855Z"
            fill="#FC1264" />
    <path
            d="M12.1333 18.7388L19.2167 11.6554L26.2444 18.6831L19.161 25.7665L12.1333 18.7388ZM21.5592 28.1651L28.6426 21.0816L29.2917 20.4325C30.2576 19.4666 30.2576 17.9003 29.2917 16.934L28.6426 16.2849L21.6149 9.25723L20.9658 8.60847C19.9999 7.64221 18.4332 7.64221 17.4673 8.60847L16.8182 9.25723L9.73511 16.3407L9.086 16.9898C8.1201 17.9557 8.1201 19.522 9.086 20.4883L9.73511 21.1374L16.7628 28.1651L17.4116 28.8138C18.3778 29.7801 19.9441 29.7801 20.9101 28.8138L21.5592 28.1651Z"
            fill="#17124B" />
    <path
            d="M22.143 32.4252C20.5555 34.0123 18.0081 34.0427 16.3677 32.5423L16.3663 32.5441L14.3748 30.5523L11.9886 32.9388L13.9801 34.9302C16.9342 37.744 21.6234 37.7073 24.5243 34.8064L31.0475 28.2832L28.6662 25.902L22.143 32.4252Z"
            fill="#25CDE3" />
    <path d="M31.0646 23.5038L31.8584 24.2972L31.0646 23.5038Z" fill="#25CDE3" />
    <path d="M4.93164 11.5374L6.12227 12.728L4.93164 11.5374Z" fill="#FC1264" />
    <path
            d="M5.4746 21.6751C3.88745 20.0883 3.85711 17.5405 5.35713 15.9005L7.32633 13.9316L4.93167 11.5373L2.96282 13.5062L2.96953 13.5129C0.15577 16.467 0.192812 21.1558 3.09335 24.0567L9.58376 30.5468L11.965 28.1655L5.4746 21.6751Z"
            fill="#FDB42B" />
    <path
            d="M35.274 13.3757L28.7836 6.88529L26.4023 9.26654L32.8927 15.7569C34.4799 17.3441 34.5102 19.8915 33.0102 21.5316L31.0647 23.5036L33.4392 25.8781L35.3982 23.9192C38.2116 20.965 38.1745 16.2762 35.274 13.3757Z"
            fill="#22D685" />
</svg>