<!--
  - Copyright 2025 Haulmont.
  -
  - Licensed under the Apache License, Version 2.0 (the "License");
  - you may not use this file except in compliance with the License.
  - You may obtain a copy of the License at
  -
  -     http://www.apache.org/licenses/LICENSE-2.0
  -
  - Unless required by applicable law or agreed to in writing, software
  - distributed under the License is distributed on an "AS IS" BASIS,
  - WITHOUT WARRANTIES OR CONDITIONS OF ANY KIND, either express or implied.
  - See the License for the specific language governing permissions and
  - limitations under the License.
  -->

<svg version="1.1" xmlns="http://www.w3.org/2000/svg" xmlns:xlink="http://www.w3.org/1999/xlink" width="16" height="16" viewBox="0 0 16 16">
<path fill="#9AA7B0" d="M0 0v16h16v-16h-16zM5 15h-4v-4h4v4zM5 10h-4v-4h4v4zM5 5h-4v-4h4v4zM10 15h-4v-4h4v4zM10 10h-4v-4h4v4zM10 5h-4v-4h4v4zM15 15h-4v-4h4v4zM15 10h-4v-4h4v4zM15 5h-4v-4h4v4z"/>
</svg>
