<!--
  - Copyright 2025 Haulmont.
  -
  - Licensed under the Apache License, Version 2.0 (the "License");
  - you may not use this file except in compliance with the License.
  - You may obtain a copy of the License at
  -
  -     http://www.apache.org/licenses/LICENSE-2.0
  -
  - Unless required by applicable law or agreed to in writing, software
  - distributed under the License is distributed on an "AS IS" BASIS,
  - WITHOUT WARRANTIES OR CONDITIONS OF ANY KIND, either express or implied.
  - See the License for the specific language governing permissions and
  - limitations under the License.
  -->

<svg version="1.1" xmlns="http://www.w3.org/2000/svg" xmlns:xlink="http://www.w3.org/1999/xlink" width="16" height="16" viewBox="0 0 16 16">
<path fill="#9AA7B0" d="M0 1v15h16v-15h-16zM5 15h-4v-2h4v2zM5 12h-4v-2h4v2zM5 9h-4v-2h4v2zM5 6h-4v-2h4v2zM10 15h-4v-2h4v2zM10 12h-4v-2h4v2zM10 9h-4v-2h4v2zM10 6h-4v-2h4v2zM15 15h-4v-2h4v2zM15 12h-4v-2h4v2zM15 9h-4v-2h4v2zM15 6h-4v-2h4v2z"/>
</svg>
