<svg width="16" height="16" viewBox="0 0 16 16" fill="none" xmlns="http://www.w3.org/2000/svg">
<path d="M2.14656 13.993C2.11319 13.9596 2.04858 13.8507 2.01591 13.6148C1.98507 13.3921 1.99088 13.112 2.03814 12.8103C2.13509 12.191 2.38664 11.5949 2.70279 11.2788L9.30571 4.67586C9.48951 4.49209 9.78748 4.49209 9.9712 4.67586L11.635 6.33964C11.8188 6.52342 11.8188 6.82137 11.635 7.00516L5.03208 13.6081C4.73412 13.9061 4.11888 14.1245 3.44687 14.1832C3.12317 14.2115 2.81772 14.1993 2.57284 14.1539C2.31165 14.1054 2.18511 14.0316 2.14656 13.993Z" stroke="#9AA7B0"/>
<path fill-rule="evenodd" clip-rule="evenodd" d="M14.5166 1.57566C13.9653 1.02434 13.0714 1.02434 12.5201 1.57566L11.512 2.58378L10.6623 1.73409C10.2948 1.36653 9.69883 1.36653 9.33127 1.73409L8.00025 3.06511C7.6327 3.43267 7.6327 4.02858 8.00025 4.39613L11.9933 8.38921C12.3608 8.75676 12.9568 8.75676 13.3243 8.38921L14.6553 7.05818C15.023 6.69064 15.023 6.09471 14.6553 5.72716L13.5085 4.58031L14.5166 3.5722C15.068 3.02088 15.068 2.12699 14.5166 1.57566Z" fill="#9AA7B0"/>
</svg>
