<svg width="16" height="16" viewBox="0 0 16 16" fill="none" xmlns="http://www.w3.org/2000/svg">
<path fill-rule="evenodd" clip-rule="evenodd" d="M1 1H5V5H1V1ZM2 2H4V4H2V2Z" fill="#AFB1B3"/>
<path d="M10 1H6V5H10V1Z" fill="#AFB1B3"/>
<path fill-rule="evenodd" clip-rule="evenodd" d="M11 1H15V5H11V1ZM12 2H14V4H12V2Z" fill="#AFB1B3"/>
<path fill-rule="evenodd" clip-rule="evenodd" d="M1 6H5V10H1V6ZM2 7H4V9H2V7Z" fill="#AFB1B3"/>
<path fill-rule="evenodd" clip-rule="evenodd" d="M6 6H10V10H6V6ZM7 7H9V9H7V7Z" fill="#AFB1B3"/>
<path fill-rule="evenodd" clip-rule="evenodd" d="M11 6H15V10H11V6ZM12 7H14V9H12V7Z" fill="#AFB1B3"/>
<path fill-rule="evenodd" clip-rule="evenodd" d="M1 11H5V15H1V11ZM2 12H4V14H2V12Z" fill="#AFB1B3"/>
<path fill-rule="evenodd" clip-rule="evenodd" d="M6 11H10V15H6V11ZM7 12H9V14H7V12Z" fill="#AFB1B3"/>
<path fill-rule="evenodd" clip-rule="evenodd" d="M11 11H15V15H11V11ZM12 12H14V14H12V12Z" fill="#AFB1B3"/>
</svg>
