<svg width="16" height="16" viewBox="0 0 16 16" fill="none" xmlns="http://www.w3.org/2000/svg">
<path d="M6 10L6.5 12H7.97013L6.5 4H5.5L1 12H2.5L3.5 10H6ZM5.5 6L6 9H4L5.5 6Z" fill="#AFB1B3"/>
<path d="M10.7303 9.28937C10.9137 8.49814 11.4917 7.5 12.5 7.5C13.4625 7.5 13.5 8.5 13.5 9C13.2134 10.1706 12.5427 11 11.5 11C11.1333 11 10.7303 11 10.5 10.5L10.7303 9.28937ZM9 11.5C9.6417 11.7926 10.2093 12 11 12C12.673 12.0325 14.5417 10.8968 15 9C15.4584 7.11404 14.2261 6.5 13 6.5C12.1864 6.5 11.6469 6.77476 11.0855 7.42508L12 4H10.5L9 11.5Z" fill="#AFB1B3"/>
</svg>
