<svg width="16" height="16" viewBox="0 0 16 16" fill="none" xmlns="http://www.w3.org/2000/svg">
<path d="M7.05638 8.37124L7.40829 9.71406H8.48254L8.51032 9.57514L6.88968 3.18522H6.3896L2.02778 9.57514L2 9.71406H3.1576L4.07441 8.37124H7.05638ZM6.30626 4.87067L6.89895 7.46369H4.6208L6.30626 4.87067Z" fill="#AFB1B3"/>
<path d="M10.5493 7.51925C10.6975 6.84322 11.1883 6.02827 12.0032 6.02827C12.7811 6.02827 13.1053 6.62096 12.8923 7.51925C12.6607 8.51942 12.0125 9.00098 11.1698 9.00098C10.8734 9.00098 10.5585 8.92689 10.2715 8.8065L10.5493 7.51925ZM9.15091 9.41771C9.66952 9.66775 10.2529 9.83445 10.8919 9.83445C12.244 9.86223 13.5405 9.13989 13.9109 7.51925C14.2814 5.90788 13.4386 5.17628 12.4477 5.17628C11.7902 5.17628 11.2901 5.37076 10.8364 5.9264L11.4476 3H10.5122L9.15091 9.41771Z" fill="#AFB1B3"/>
<path d="M14 12H2V13H14V12Z" fill="#AFB1B3"/>
</svg>
