<svg width="16" height="16" viewBox="0 0 16 16" fill="none" xmlns="http://www.w3.org/2000/svg">
<path fill-rule="evenodd" clip-rule="evenodd" d="M4 1H12V2V2.5V4V6C12 6.62184 11.4398 7 10.9167 7H10.4343L11.7676 9H15V10V10.5V12V14C15 14.5522 14.5522 15 14 15H10C9.44769 15 9 14.5522 9 14V12V10.5V10V9H10.5657L9.23241 7H6.76759L5.43426 9H7V10V10.5V12V14C7 14.5522 6.55231 15 6 15H2C1.44769 15 1 14.5522 1 14V12V10.5V10V9H4.23241L5.56574 7H5.08333C4.56011 7 4 6.62182 4 6V4V2.5V2V1ZM2 12V14H6V12H2ZM14 14V12H10V14H14ZM5 4V5.97688C5.01342 5.98669 5.04135 6 5.08333 6H10.9167C10.9586 6 10.9866 5.98669 11 5.97687V4H5Z" fill="#AFB1B3"/>
</svg>
