<svg width="16" height="16" viewBox="0 0 16 16" fill="none" xmlns="http://www.w3.org/2000/svg">
<path d="M3 2H1V3H3V2Z" fill="#9AA7B0"/>
<path d="M5 2H4V3H5V2Z" fill="#9AA7B0"/>
<path d="M7 2H6V3H7V2Z" fill="#9AA7B0"/>
<path d="M9 2H8V3H9V2Z" fill="#9AA7B0"/>
<path d="M11 2H10V3H11V2Z" fill="#9AA7B0"/>
<path d="M13 2H12V3H13V2Z" fill="#9AA7B0"/>
<path d="M15 2H14V4H15V2Z" fill="#9AA7B0"/>
<path d="M15 5H14V6H15V5Z" fill="#9AA7B0"/>
<path d="M15 7H14V8H15V7Z" fill="#9AA7B0"/>
<path d="M15 9H14V10H15V9Z" fill="#9AA7B0"/>
<path d="M15 11H14V12H15V11Z" fill="#9AA7B0"/>
<path d="M15 13H13V14H15V13Z" fill="#9AA7B0"/>
<path d="M12 13H11V14H12V13Z" fill="#9AA7B0"/>
<path d="M10 13H9V14H10V13Z" fill="#9AA7B0"/>
<path d="M8 13H7V14H8V13Z" fill="#9AA7B0"/>
<path d="M6 13H5V14H6V13Z" fill="#9AA7B0"/>
<path d="M4 13H3V14H4V13Z" fill="#9AA7B0"/>
<path d="M2 12H1V14H2V12Z" fill="#9AA7B0"/>
<path d="M2 10H1V11H2V10Z" fill="#9AA7B0"/>
<path d="M2 8H1V9H2V8Z" fill="#9AA7B0"/>
<path d="M2 6H1V7H2V6Z" fill="#9AA7B0"/>
<path d="M2 4H1V5H2V4Z" fill="#9AA7B0"/>
<path fill-rule="evenodd" clip-rule="evenodd" d="M13 5.04089H5L3 8.04089L5 11.0409H13V5.04089ZM6.18353 9.04089C6.73581 9.04089 7.18353 8.59318 7.18353 8.04089C7.18353 7.48861 6.73581 7.04089 6.18353 7.04089C5.63124 7.04089 5.18353 7.48861 5.18353 8.04089C5.18353 8.59318 5.63124 9.04089 6.18353 9.04089Z" fill="#9AA7B0"/>
</svg>
