<svg width="16" height="16" viewBox="0 0 16 16" fill="none" xmlns="http://www.w3.org/2000/svg">
<path d="M2 5V6H1V5H2Z" fill="#AFB1B3"/>
<path d="M3 3V4H1V3H3Z" fill="#AFB1B3"/>
<path d="M15 3V5H14V3H15Z" fill="#AFB1B3"/>
<path d="M5 3V4H4V3H5Z" fill="#AFB1B3"/>
<path d="M4 12V13H3V12H4Z" fill="#AFB1B3"/>
<path d="M2 11L2 13H1L1 11H2Z" fill="#AFB1B3"/>
<path d="M7 3V4H6V3H7Z" fill="#AFB1B3"/>
<path d="M6 12V13H5V12H6Z" fill="#AFB1B3"/>
<path d="M9 3V4H8V3H9Z" fill="#AFB1B3"/>
<path d="M10 12V13H9V12H10Z" fill="#AFB1B3"/>
<path d="M8 12V13H7V12H8Z" fill="#AFB1B3"/>
<path d="M11 3V4H10V3H11Z" fill="#AFB1B3"/>
<path d="M12 12V13H11V12H12Z" fill="#AFB1B3"/>
<path d="M13 3V4H12V3H13Z" fill="#AFB1B3"/>
<path d="M15 12V13H13V12H15Z" fill="#AFB1B3"/>
<path d="M15 6V7H14V6H15Z" fill="#AFB1B3"/>
<path d="M2 9V10H1V9H2Z" fill="#AFB1B3"/>
<path d="M15 8V9H14V8H15Z" fill="#AFB1B3"/>
<path d="M15 10V11H14V10H15Z" fill="#AFB1B3"/>
<path d="M2 7V8H1V7H2Z" fill="#AFB1B3"/>
<path d="M5 10C6.10457 10 7 9.10457 7 8C7 6.89543 6.10457 6 5 6C3.89543 6 3 6.89543 3 8C3 9.10457 3.89543 10 5 10Z" fill="#AFB1B3"/>
<path d="M8 6H13L10.4969 10L8 6Z" fill="#AFB1B3"/>
</svg>
