<svg width="16" height="16" viewBox="0 0 16 16" fill="none" xmlns="http://www.w3.org/2000/svg">
<path d="M10.8 5.2H3L5.99999 8.2V9.4L7.79999 10V8.2L10.8 5.2Z" fill="#AFB1B3"/>
<path d="M10.8 4H3V4.5H10.8V4Z" fill="#AFB1B3"/>
<path fill-rule="evenodd" clip-rule="evenodd" d="M13 1H12V3H13V1ZM2 3V4H1V3H2ZM13 5V4H12V5H13ZM2 6V5H1V6H2ZM3 1V2H1V1H3ZM5 2V1H4V2H5ZM4 12V13H3V12H4ZM7 2V1H6V2H7ZM6 12V13H5V12H6ZM9 2V1H8V2H9ZM7 12.7861V13H7.23194L7.18173 12.9499C7.11582 12.8982 7.05533 12.8435 7 12.7861ZM11 2V1H10V2H11ZM10 14V15H9.49867L9.69127 14H10ZM14.9073 12H14V12.906L14.9073 12ZM13.7116 14H13V15H13.9042L13.7116 14ZM12 14.7595V14H11V14.9856L11.6304 14.6447H11.7876L12 14.7595ZM13 6V7H12V6H13ZM2 11V13H1V11H2ZM2 9V10H1V9H2ZM2 7V8H1V7H2Z" fill="#AFB1B3"/>
<path d="M9.66681 15.6641H9.74536L11.6304 14.6446H11.709H11.7876L13.6727 15.6641H13.7512C13.9083 15.6641 13.9868 15.5857 13.9868 15.4288L13.5941 13.3897C13.5941 13.3112 13.5941 13.2328 13.6727 13.2328L15.165 11.7426C15.3222 11.5857 15.2436 11.4288 15.0865 11.4288L13.0443 11.0367C12.9658 11.0367 12.8872 10.9582 12.8872 10.9582L11.9447 9.07593C11.9447 8.9975 11.8661 8.9975 11.7876 8.9975C11.709 8.9975 11.6304 8.9975 11.6304 9.07593L10.6094 10.9582C10.6094 11.0367 10.5309 11.0367 10.4523 11.0367L8.33154 11.3504C8.17444 11.3504 8.09589 11.5857 8.25299 11.6642L9.74536 13.1543C9.82391 13.2328 9.82391 13.2328 9.82391 13.3112L9.43118 15.3504C9.43118 15.5857 9.58827 15.6641 9.66681 15.6641Z" fill="#AFB1B3"/>
</svg>
