<svg width="16" height="16" viewBox="0 0 16 16" fill="none" xmlns="http://www.w3.org/2000/svg">
<path d="M9.66681 15.6641H9.74536L11.6304 14.6446H11.709H11.7876L13.6727 15.6641H13.7512C13.9083 15.6641 13.9868 15.5857 13.9868 15.4288L13.5941 13.3897C13.5941 13.3112 13.5941 13.2328 13.6727 13.2328L15.165 11.7426C15.3222 11.5857 15.2436 11.4288 15.0865 11.4288L13.0443 11.0367C12.9658 11.0367 12.8872 10.9582 12.8872 10.9582L11.9447 9.07593C11.9447 8.9975 11.8661 8.9975 11.7876 8.9975C11.709 8.9975 11.6304 8.9975 11.6304 9.07593L10.6094 10.9582C10.6094 11.0367 10.5309 11.0367 10.4523 11.0367L8.33154 11.3504C8.17444 11.3504 8.09589 11.5857 8.25299 11.6642L9.74536 13.1543C9.82391 13.2328 9.82391 13.2328 9.82391 13.3112L9.43118 15.3504C9.43118 15.5857 9.58827 15.6641 9.66681 15.6641Z" fill="#9AA7B0"/>
<path d="M11.8 5.2H4L6.99999 8.2V9.4L8.79999 10V8.2L11.8 5.2Z" fill="#9AA7B0"/>
<path d="M11.8 4H4V4.5H11.8V4Z" fill="#9AA7B0"/>
<path fill-rule="evenodd" clip-rule="evenodd" d="M2 4C2 2.89543 2.89543 2 4 2H12C13.1046 2 14 2.89543 14 4V9.4583L14.036 9.53013L15 9.71521V4C15 2.34315 13.6569 1 12 1H4C2.34315 1 1 2.34315 1 4V10C1 11.6569 2.34315 13 4 13H7.23194L7.18173 12.9499C6.84917 12.6894 6.65445 12.3487 6.56464 12H4C2.89543 12 2 11.1046 2 10V4ZM8.58922 12L9.59071 13H12C13.171 13 14.1852 12.3291 14.6794 11.3508L13.6362 11.1505C13.2742 11.6643 12.6763 12 12 12H8.58922Z" fill="#9AA7B0"/>
</svg>
