<!--
  - Copyright 2022 Haulmont.
  -
  - Licensed under the Apache License, Version 2.0 (the "License");
  - you may not use this file except in compliance with the License.
  - You may obtain a copy of the License at
  -
  -     http://www.apache.org/licenses/LICENSE-2.0
  -
  - Unless required by applicable law or agreed to in writing, software
  - distributed under the License is distributed on an "AS IS" BASIS,
  - WITHOUT WARRANTIES OR CONDITIONS OF ANY KIND, either express or implied.
  - See the License for the specific language governing permissions and
  - limitations under the License.
  -->

<svg width="16" height="16" viewBox="0 0 16 16" fill="none" xmlns="http://www.w3.org/2000/svg">
<path d="M8.29935 15H8.39361L10.6557 13.7765H10.75H10.8443L13.1064 15H13.2006C13.3892 15 13.4834 14.9059 13.4834 14.7176L13.0121 12.2706C13.0121 12.1765 13.0121 12.0824 13.1064 12.0824L14.8972 10.2941C15.0858 10.1059 14.9915 9.9176 14.803 9.9176L12.3523 9.4471C12.2581 9.4471 12.1638 9.3529 12.1638 9.3529L11.0328 7.09412C11.0328 7 10.9385 7 10.8443 7C10.75 7 10.6557 7 10.6557 7.09412L9.4304 9.3529C9.4304 9.4471 9.3362 9.4471 9.2419 9.4471L6.69701 9.8235C6.5085 9.8235 6.41424 10.1059 6.60275 10.2L8.39361 11.9882C8.48787 12.0824 8.48787 12.0824 8.48787 12.1765L8.01659 14.6235C8.01659 14.9059 8.2051 15 8.29935 15Z" fill="#9AA7B0"/>
<path d="M6.09975 14.0009L6.3383 12.7623L5.57485 11.9999L1 12V14L6.09975 14.0009Z" fill="#9AA7B0"/>
<path d="M4.5884 9.41682C4.46439 9.29327 4.35651 9.15355 4.26819 9.00108L1 9V7L4.26761 6.99993C4.61343 6.40217 5.25975 6 6 6C6.74025 6 7.38657 6.40217 7.73239 6.99993L8.43148 6.99993L8.10989 7.59277L6.9713 7.76117C6.86423 7.32421 6.46997 7 6 7C5.44772 7 5 7.44772 5 8C5 8.17834 5.04668 8.34578 5.1285 8.49075C4.85838 8.77428 4.67797 9.10971 4.5884 9.41682Z" fill="#9AA7B0"/>
<path d="M15 7.91889L13.5424 7.63905L13.2224 6.99998L15 7V7.91889Z" fill="#9AA7B0"/>
<path fill-rule="evenodd" clip-rule="evenodd" d="M12.7324 1.99993C12.3866 1.40217 11.7403 1 11 1C10.2597 1 9.61343 1.40217 9.26761 1.99993L1 2V4L9.26819 4.00108C9.61415 4.59828 10.2602 5 11 5C11.7398 5 12.3858 4.59828 12.7318 4.00108L15 4V2L12.7324 1.99993ZM10 3C10 2.44772 10.4477 2 11 2C11.5523 2 12 2.44772 12 3C12 3.55228 11.5523 4 11 4C10.4477 4 10 3.55228 10 3Z" fill="#9AA7B0"/>
</svg>
