<!--
  - Copyright 2022 Haulmont.
  -
  - Licensed under the Apache License, Version 2.0 (the "License");
  - you may not use this file except in compliance with the License.
  - You may obtain a copy of the License at
  -
  -     http://www.apache.org/licenses/LICENSE-2.0
  -
  - Unless required by applicable law or agreed to in writing, software
  - distributed under the License is distributed on an "AS IS" BASIS,
  - WITHOUT WARRANTIES OR CONDITIONS OF ANY KIND, either express or implied.
  - See the License for the specific language governing permissions and
  - limitations under the License.
  -->

<svg width="16" height="16" viewBox="0 0 16 16" fill="none" xmlns="http://www.w3.org/2000/svg">
<path d="M7.49306 2.54574C8.19819 2.45039 8.91516 2.50448 9.59862 2.70459C10.69 3.02775 11.6501 3.69782 12.3378 4.61612C13.0254 5.53442 13.4041 6.6524 13.4182 7.80545H14.8451C14.8577 7.79908 14.8714 7.79527 14.8854 7.79426C14.8994 7.79325 14.9135 7.79505 14.9268 7.79956C14.9402 7.80407 14.9525 7.81119 14.9631 7.82053C14.9737 7.82987 14.9824 7.84124 14.9887 7.85399C14.995 7.86673 14.9987 7.88061 14.9997 7.89483C15.0007 7.90905 14.999 7.92332 14.9945 7.93685C14.9901 7.95037 14.983 7.96287 14.9738 7.97364C14.9646 7.9844 14.9534 7.99323 14.9408 7.9996L12.7744 10.9825C12.7663 10.9934 12.7558 11.0023 12.7437 11.0084C12.7316 11.0146 12.7183 11.0178 12.7048 11.0178C12.6913 11.0178 12.6779 11.0146 12.6659 11.0084C12.6538 11.0023 12.6433 10.9934 12.6352 10.9825L10.46 7.9996C10.4493 7.98483 10.4425 7.96749 10.4404 7.94928C10.4383 7.93107 10.4408 7.91261 10.4478 7.89571C10.4549 7.87881 10.4661 7.86404 10.4804 7.85286C10.4947 7.84168 10.5117 7.83447 10.5296 7.83192H11.9565C11.9473 7.10366 11.7363 6.39271 11.3477 5.78026C10.9591 5.16782 10.4085 4.67858 9.75884 4.36841C9.10914 4.05825 8.38654 3.93968 7.67357 4.02623C6.9606 4.11278 6.286 4.40098 5.72682 4.85789C5.65275 4.93263 5.56374 4.9904 5.4658 5.02729C5.36786 5.06418 5.26326 5.07935 5.15905 5.07176C5.05483 5.06418 4.95344 5.03402 4.86169 4.98332C4.76995 4.93262 4.68999 4.86256 4.6272 4.77786C4.56441 4.69316 4.52026 4.59579 4.49771 4.49231C4.47517 4.38883 4.47476 4.28166 4.49652 4.17801C4.51827 4.07436 4.56168 3.97665 4.62382 3.89146C4.68596 3.80627 4.76539 3.73558 4.85675 3.68416C5.61364 3.06272 6.5268 2.66839 7.49306 2.54574ZM10.2338 11.1501C9.6149 11.6748 8.84635 11.9841 8.0412 12.0326C7.5241 12.0551 7.0078 11.9722 6.52283 11.7888C6.03787 11.6054 5.59408 11.3252 5.2177 10.9649C4.84133 10.6045 4.54 10.1713 4.33155 9.69074C4.1231 9.21022 4.01175 8.69219 4.00408 8.16727H5.43099C5.45049 8.1681 5.46978 8.16287 5.48626 8.15226C5.50274 8.14166 5.51563 8.1262 5.52321 8.10796C5.53078 8.08971 5.53267 8.06955 5.52863 8.05019C5.52459 8.03082 5.51481 8.01317 5.5006 7.9996L3.34283 5.02557C3.33624 5.0126 3.32626 5.00173 3.31398 4.99414C3.3017 4.98655 3.2876 4.98253 3.27322 4.98253C3.25884 4.98253 3.24474 4.98655 3.23246 4.99414C3.22019 5.00173 3.2102 5.0126 3.20362 5.02557L1.01974 7.9996C1.00881 8.01497 1.00214 8.03303 1.00044 8.05191C0.998731 8.07078 1.00205 8.08978 1.01005 8.10691C1.01805 8.12404 1.03044 8.13867 1.04591 8.14929C1.06139 8.15991 1.0794 8.16612 1.09805 8.16727H2.54236C2.54815 8.92316 2.71107 9.66931 3.0205 10.357C3.32993 11.0447 3.77889 11.6584 4.33807 12.1581C4.89726 12.6578 5.55408 13.0323 6.26564 13.257C6.97721 13.4817 7.72751 13.5517 8.46754 13.4623C9.44708 13.3503 10.3743 12.9552 11.1386 12.3239C11.2331 12.2741 11.3156 12.204 11.3806 12.1186C11.4455 12.0331 11.4913 11.9343 11.5147 11.829C11.5381 11.7237 11.5385 11.6146 11.516 11.5091C11.4935 11.4036 11.4485 11.3044 11.3843 11.2184C11.32 11.1324 11.238 11.0616 11.144 11.0111C11.05 10.9605 10.9463 10.9314 10.84 10.9258C10.7338 10.9201 10.6276 10.938 10.5289 10.9783C10.4302 11.0186 10.3414 11.0802 10.2686 11.159L10.2338 11.1501Z" fill="#9AA7B0"/>
</svg>
