<svg width="16" height="16" viewBox="0 0 16 16" fill="none" xmlns="http://www.w3.org/2000/svg">
<path fill-rule="evenodd" clip-rule="evenodd" d="M1 3C1 1.89543 1.89543 1 3 1H11C12.1046 1 13 1.89543 13 3V7.75001C12.7916 7.57356 12.5772 7.47771 12.4219 7.42601C12.2133 7.35659 12.0356 7.34113 11.956 7.33583C11.8776 7.33061 11.8052 7.33086 11.7899 7.33092H11.7899L11.7876 7.33092L11.7853 7.33092C11.7699 7.33086 11.6976 7.33061 11.6192 7.33583C11.5396 7.34112 11.362 7.35656 11.1534 7.42595C10.9352 7.49854 10.6004 7.65827 10.3293 8.00622C10.2247 8.14051 10.1474 8.27972 10.0916 8.41747L9.50891 9.49156L8.15668 9.69156C7.2652 9.77143 6.73363 10.4548 6.57206 11.0195C6.40509 11.6031 6.523 12.4339 7.18173 12.9499L7.23194 13H3C1.89543 13 1 12.1046 1 11V3ZM12.9998 11.0293C12.9841 12.1204 12.0948 13 11 13H9.59071L8.25297 11.6642C8.09588 11.5858 8.17443 11.3505 8.33152 11.3505L10.4523 11.0368C10.5308 11.0368 10.6093 11.0368 10.6093 10.9583L11.6304 9.07602C11.6304 8.99759 11.709 8.99759 11.7876 8.99759C11.8661 8.99759 11.9447 8.99759 11.9447 9.07602L12.8872 10.9583C12.8872 10.9583 12.9386 11.0097 12.9998 11.0293ZM6.20361 9.72672L10.5839 5.34647L9.38915 4.15176L6.20361 7.3373L4.61084 5.74453L3.41613 6.93924L6.20361 9.72672Z" fill="#9AA7B0"/>
<path d="M9.66681 15.6641H9.74536L11.6304 14.6446H11.709H11.7876L13.6727 15.6641H13.7512C13.9083 15.6641 13.9868 15.5857 13.9868 15.4288L13.5941 13.3897C13.5941 13.3112 13.5941 13.2328 13.6727 13.2328L15.165 11.7426C15.3222 11.5857 15.2436 11.4288 15.0865 11.4288L13.0443 11.0367C12.9658 11.0367 12.8872 10.9582 12.8872 10.9582L11.9447 9.07593C11.9447 8.9975 11.8661 8.9975 11.7876 8.9975C11.709 8.9975 11.6304 8.9975 11.6304 9.07593L10.6094 10.9582C10.6094 11.0367 10.5309 11.0367 10.4523 11.0367L8.33154 11.3504C8.17444 11.3504 8.09589 11.5857 8.25299 11.6642L9.74536 13.1543C9.82391 13.2328 9.82391 13.2328 9.82391 13.3112L9.43118 15.3504C9.43118 15.5857 9.58827 15.6641 9.66681 15.6641Z" fill="#9AA7B0"/>
</svg>
