<svg width="16" height="16" viewBox="0 0 16 16" fill="none" xmlns="http://www.w3.org/2000/svg">
<path d="M8 3V4H9V3H8Z" fill="#9AA7B0"/>
<path d="M8 5V6H9V5H8Z" fill="#9AA7B0"/>
<path d="M8 7V8H9V7H8Z" fill="#9AA7B0"/>
<path d="M8 9V10H9V9H8Z" fill="#9AA7B0"/>
<path d="M8 11V12H9V11H8Z" fill="#9AA7B0"/>
<path d="M8 13V14H9V13H8Z" fill="#9AA7B0"/>
<path d="M2 9H3V8H2L2 9Z" fill="#9AA7B0"/>
<path d="M4 9H5V8H4V9Z" fill="#9AA7B0"/>
<path d="M6 9H7V8H6V9Z" fill="#9AA7B0"/>
<path d="M10 9H11V8H10V9Z" fill="#9AA7B0"/>
<path d="M12 9H13V8H12V9Z" fill="#9AA7B0"/>
<path d="M2 5V6H1V5H2Z" fill="#9AA7B0"/>
<path d="M15 4V5H14V4H15Z" fill="#9AA7B0"/>
<path d="M2 11V12H1V11H2Z" fill="#9AA7B0"/>
<path d="M2 3V4H1V3H2Z" fill="#9AA7B0"/>
<path d="M15 1V3H14V1H15Z" fill="#9AA7B0"/>
<path d="M3 1V2H1V1H3Z" fill="#9AA7B0"/>
<path d="M5 1V2H4V1H5Z" fill="#9AA7B0"/>
<path d="M4 14V15H3V14H4Z" fill="#9AA7B0"/>
<path d="M7 1V2H6V1H7Z" fill="#9AA7B0"/>
<path d="M6 14V15H5V14H6Z" fill="#9AA7B0"/>
<path d="M9 1V2H8V1H9Z" fill="#9AA7B0"/>
<path d="M8 14V15H7V14H8Z" fill="#9AA7B0"/>
<path d="M11 1V2H10V1H11Z" fill="#9AA7B0"/>
<path d="M10 14V15H9V14H10Z" fill="#9AA7B0"/>
<path d="M13 1V2H12V1H13Z" fill="#9AA7B0"/>
<path d="M12 14V15H11V14H12Z" fill="#9AA7B0"/>
<path d="M15 6V7H14V6H15Z" fill="#9AA7B0"/>
<path d="M15 12V13H14V12H15Z" fill="#9AA7B0"/>
<path d="M2 13L2 15H1L1 13H2Z" fill="#9AA7B0"/>
<path d="M15 14V15H13V14H15Z" fill="#9AA7B0"/>
<path d="M2 9V10H1V9H2Z" fill="#9AA7B0"/>
<path d="M15 10V11H14V10H15Z" fill="#9AA7B0"/>
<path d="M2 7V8H1V7H2Z" fill="#9AA7B0"/>
<path d="M15 8V9H14V8H15Z" fill="#9AA7B0"/>
</svg>
