<svg width="16" height="16" viewBox="0 0 16 16" fill="none" xmlns="http://www.w3.org/2000/svg">
<path d="M3 2H1V3H3V2Z" fill="#AFB1B3"/>
<path d="M5 2H4V3H5V2Z" fill="#AFB1B3"/>
<path d="M7 2H6V3H7V2Z" fill="#AFB1B3"/>
<path d="M9 2H8V3H9V2Z" fill="#AFB1B3"/>
<path d="M11 2H10V3H11V2Z" fill="#AFB1B3"/>
<path d="M13 2H12V3H13V2Z" fill="#AFB1B3"/>
<path d="M15 2H14V4H15V2Z" fill="#AFB1B3"/>
<path d="M15 5H14V6H15V5Z" fill="#AFB1B3"/>
<path d="M15 7H14V8H15V7Z" fill="#AFB1B3"/>
<path d="M15 9H14V10H15V9Z" fill="#AFB1B3"/>
<path d="M15 11H14V12H15V11Z" fill="#AFB1B3"/>
<path d="M15 13H13V14H15V13Z" fill="#AFB1B3"/>
<path d="M12 13H11V14H12V13Z" fill="#AFB1B3"/>
<path d="M10 13H9V14H10V13Z" fill="#AFB1B3"/>
<path d="M8 13H7V14H8V13Z" fill="#AFB1B3"/>
<path d="M6 13H5V14H6V13Z" fill="#AFB1B3"/>
<path d="M4 13H3V14H4V13Z" fill="#AFB1B3"/>
<path d="M2 12H1V14H2V12Z" fill="#AFB1B3"/>
<path d="M2 10H1V11H2V10Z" fill="#AFB1B3"/>
<path d="M2 8H1V9H2V8Z" fill="#AFB1B3"/>
<path d="M2 6H1V7H2V6Z" fill="#AFB1B3"/>
<path d="M2 4H1V5H2V4Z" fill="#AFB1B3"/>
<path d="M13 7.4L10 5V6.2L12.25 8L10 9.8V11L13 8.6V7.4Z" fill="#AFB1B3"/>
<path d="M3 7.4L6 5V6.2L3.75 8L6 9.8V11L3 8.6V7.4Z" fill="#AFB1B3"/>
<path d="M8.5 5H9.5L7.5 11H6.5L8.5 5Z" fill="#AFB1B3"/>
</svg>
