<svg width="16" height="16" viewBox="0 0 16 16" fill="none" xmlns="http://www.w3.org/2000/svg">
<path fill-rule="evenodd" clip-rule="evenodd" d="M14 4H2V13C2 13.5523 2.44772 14 3 14H13C13.5523 14 14 13.5523 14 13V4ZM1 4V3C1 1.89543 1.89543 1 3 1H13C14.1046 1 15 1.89543 15 3V4V13C15 14.1046 14.1046 15 13 15H3C1.89543 15 1 14.1046 1 13V4ZM12 9H5V11.9C5 11.95 5.01564 11.9837 5.02735 12H11.9726C11.9844 11.9837 12 11.95 12 11.9V9ZM4 7.1C4 6.58172 4.36623 6 5 6H12C12.6337 6 13 6.58169 13 7.1V11.9C13 12.4182 12.6337 13 12 13H5C4.36621 13 4 12.4182 4 11.9V7.1Z" fill="#AFB1B3"/>
</svg>
