<svg width="16" height="16" viewBox="0 0 16 16" fill="none" xmlns="http://www.w3.org/2000/svg">
<path d="M2 1H1V2H2V1Z" fill="#AFB1B3"/>
<path d="M4 1H3V2H4V1Z" fill="#AFB1B3"/>
<path d="M4 6H3V7H4V6Z" fill="#AFB1B3"/>
<path d="M6 1H5V2H6V1Z" fill="#AFB1B3"/>
<path d="M6 6H5V7H6V6Z" fill="#AFB1B3"/>
<path d="M7 1H6V7H7V1Z" fill="#AFB1B3"/>
<path d="M10 1H9V7H10V1Z" fill="#AFB1B3"/>
<path d="M13 1H12V2H13V1Z" fill="#AFB1B3"/>
<path d="M13 6H12V7H13V6Z" fill="#AFB1B3"/>
<path d="M11 1H10V2H11V1Z" fill="#AFB1B3"/>
<path d="M11 6H10V7H11V6Z" fill="#AFB1B3"/>
<path d="M15 4H14V5H15V4Z" fill="#AFB1B3"/>
<path d="M15 1H14V3H15V1Z" fill="#AFB1B3"/>
<path d="M15 6H14V7H15V6Z" fill="#AFB1B3"/>
<path d="M15 8H14V9H15V8Z" fill="#AFB1B3"/>
<path d="M15 10H14V11H15V10Z" fill="#AFB1B3"/>
<path d="M15 12H14V13H15V12Z" fill="#AFB1B3"/>
<path d="M15 14H13V15H15V14Z" fill="#AFB1B3"/>
<path d="M12 14H11V15H12V14Z" fill="#AFB1B3"/>
<path d="M10 14H9V15H10V14Z" fill="#AFB1B3"/>
<path d="M8 14H7V15H8V14Z" fill="#AFB1B3"/>
<path d="M6 14H5V15H6V14Z" fill="#AFB1B3"/>
<path d="M4 14H3V15H4V14Z" fill="#AFB1B3"/>
<path d="M2 13H1V15H2V13Z" fill="#AFB1B3"/>
<path d="M2 11H1V12H2V11Z" fill="#AFB1B3"/>
<path d="M2 9H1V10H2V9Z" fill="#AFB1B3"/>
<path d="M2 7H1V8H2V7Z" fill="#AFB1B3"/>
<path d="M2 5H1V6H2V5Z" fill="#AFB1B3"/>
<path d="M2 3H1V4H2V3Z" fill="#AFB1B3"/>
<path d="M7 9L4 11L7 13V9Z" fill="#AFB1B3"/>
<path d="M9 9L12 11L9 13V9Z" fill="#AFB1B3"/>
</svg>
