<svg width="16" height="16" viewBox="0 0 16 16" fill="none" xmlns="http://www.w3.org/2000/svg">
<rect x="4" y="1" width="1" height="2" fill="#9AA7B0"/>
<rect x="9" y="1" width="1" height="2" fill="#9AA7B0"/>
<path fill-rule="evenodd" clip-rule="evenodd" d="M8 3H6V3.91667H3V3H1.85714C1.38376 3 1 3.41041 1 3.91667V5V5.75V13.0833C1 13.5896 1.38376 14 1.85714 14H7.93024L8.0326 13.4686L7.56333 13H2V5.75H12V7.00831C12.0916 7.01635 12.2457 7.03649 12.4219 7.09511C12.5772 7.14681 12.7916 7.24266 13 7.41911V5.75V5V3.91667C13 3.41041 12.6162 3 12.1429 3H11V3.91667H8V3ZM13 10.6985C12.9387 10.6789 12.8872 10.6274 12.8872 10.6274L12 8.85562V13H9.82013L9.62754 14H12.1429C12.6162 14 13 13.5896 13 13.0833V10.6985ZM7.68711 9.46677L8.33333 7.79795V7H5V8.11986H7L5.4139 12H6.68464C6.47564 11.5625 6.46233 11.0721 6.57206 10.6886C6.7029 10.2313 7.07637 9.69621 7.68711 9.46677Z" fill="#9AA7B0"/>
<path d="M9.66681 15.3333H9.74536L11.6304 14.3137H11.709H11.7876L13.6727 15.3333H13.7512C13.9083 15.3333 13.9868 15.2549 13.9868 15.0979L13.5941 13.0588C13.5941 12.9804 13.5941 12.9019 13.6727 12.9019L15.165 11.4117C15.3222 11.2549 15.2436 11.098 15.0865 11.098L13.0443 10.7059C12.9658 10.7059 12.8872 10.6274 12.8872 10.6274L11.9447 8.74506C11.9447 8.66663 11.8661 8.66663 11.7876 8.66663C11.709 8.66663 11.6304 8.66663 11.6304 8.74506L10.6094 10.6274C10.6094 10.7059 10.5309 10.7059 10.4523 10.7059L8.33154 11.0195C8.17444 11.0195 8.09589 11.2549 8.25299 11.3333L9.74536 12.8234C9.82391 12.9019 9.82391 12.9019 9.82391 12.9804L9.43118 15.0195C9.43118 15.2549 9.58827 15.3333 9.66681 15.3333Z" fill="#9AA7B0"/>
</svg>
