<svg width="16" height="16" viewBox="0 0 16 16" fill="none" xmlns="http://www.w3.org/2000/svg">
<path fill-rule="evenodd" clip-rule="evenodd" d="M1 3C1 1.89543 1.89543 1 3 1H11C12.1046 1 13 1.89543 13 3V7.75004C12.7916 7.57359 12.5772 7.47774 12.4219 7.42604C12.2133 7.35662 12.0356 7.34117 11.956 7.33587C11.8776 7.33064 11.8052 7.3309 11.7899 7.33095L11.7876 7.33096L11.7853 7.33095C11.7699 7.3309 11.6976 7.33065 11.6192 7.33586C11.5397 7.34115 11.3624 7.35656 11.1541 7.42575C11.1922 7.32919 11.2241 7.22879 11.2493 7.12473C11.5357 5.94611 10.7656 5.56237 9.99936 5.56237C9.49091 5.56237 9.15375 5.73408 8.8029 6.14049L9.37442 4H8.437L7.49958 8.6871C7.9006 8.86996 8.25532 8.99958 8.74947 8.99958C9.141 9.00718 9.54968 8.91241 9.9228 8.72862L9.50891 9.4916L8.15668 9.6916C7.2652 9.77146 6.73363 10.4548 6.57206 11.0195C6.40509 11.6031 6.523 12.4339 7.18173 12.9499L7.23191 13H3C1.89543 13 1 12.1046 1 11V3ZM12.9998 11.0294C12.9841 12.1204 12.0948 13 11 13H9.59068L8.25297 11.6643C8.09588 11.5859 8.17443 11.3505 8.33152 11.3505L10.4523 11.0369C10.5308 11.0369 10.6093 11.0369 10.6093 10.9584L11.6304 9.07605C11.6304 8.99762 11.709 8.99762 11.7876 8.99762C11.8661 8.99762 11.9447 8.99762 11.9447 9.07605L12.8872 10.9584C12.8872 10.9584 12.9386 11.0097 12.9998 11.0294ZM5.62473 7.74968L5.93721 8.99958H6.85596L5.93721 4H5.31226L2.5 8.99958H3.43742L4.06237 7.74968H5.62473ZM5.31226 5.24989L5.62473 7.12473H4.37484L5.31226 5.24989ZM8.58092 7.30558C8.69554 6.8111 9.05676 6.18731 9.68689 6.18731C10.2884 6.18731 10.3118 6.81226 10.3118 7.12473C10.1327 7.8563 9.71358 8.37463 9.06194 8.37463C8.83278 8.37463 8.58092 8.37463 8.437 8.06216L8.58092 7.30558Z" fill="#AFB1B3"/>
<path d="M9.66681 15.6641H9.74536L11.6304 14.6446H11.709H11.7876L13.6727 15.6641H13.7512C13.9083 15.6641 13.9868 15.5857 13.9868 15.4288L13.5941 13.3897C13.5941 13.3112 13.5941 13.2328 13.6727 13.2328L15.165 11.7426C15.3222 11.5857 15.2436 11.4288 15.0865 11.4288L13.0443 11.0367C12.9658 11.0367 12.8872 10.9582 12.8872 10.9582L11.9447 9.07593C11.9447 8.9975 11.8661 8.9975 11.7876 8.9975C11.709 8.9975 11.6304 8.9975 11.6304 9.07593L10.6094 10.9582C10.6094 11.0367 10.5309 11.0367 10.4523 11.0367L8.33154 11.3504C8.17444 11.3504 8.09589 11.5857 8.25299 11.6642L9.74536 13.1543C9.82391 13.2328 9.82391 13.2328 9.82391 13.3112L9.43118 15.3504C9.43118 15.5857 9.58827 15.6641 9.66681 15.6641Z" fill="#AFB1B3"/>
</svg>
