<svg width="16" height="16" viewBox="0 0 16 16" fill="none" xmlns="http://www.w3.org/2000/svg">
<rect x="4" y="1" width="1" height="2" fill="#AFB1B3"/>
<rect x="9" y="1" width="1" height="2" fill="#AFB1B3"/>
<path fill-rule="evenodd" clip-rule="evenodd" d="M8 3H6V3.91667H3V3H1.85714C1.38376 3 1 3.41041 1 3.91667V5V6V13.0833C1 13.5896 1.38376 14 1.85714 14H7.93024L8.0326 13.4686L7.56333 13H2V6H12V7.00831C12.0916 7.01635 12.2457 7.03649 12.4219 7.09511C12.5772 7.14681 12.7916 7.24266 13 7.41911V6V5V3.91667C13 3.41041 12.6162 3 12.1429 3H11V3.91667H8V3ZM13 10.6985C12.9387 10.6789 12.8872 10.6274 12.8872 10.6274L12 8.85562V13H9.82013L9.62754 14H12.1429C12.6162 14 13 13.5896 13 13.0833V10.6985ZM8.85366 11.9331H9.59653V10.8325L8.4676 10.9995V11.5477L8.85366 11.9331ZM8.4676 9.31468L9.50891 9.16066L9.59653 8.99916V7.07008H9.49299L7.35872 7.80822V8.66327L8.4676 8.33928V9.31468ZM4.169 9.03067H4.70007C5.12091 9.03067 5.33133 8.8247 5.33133 8.41276C5.33133 8.25244 5.28123 8.12218 5.18103 8.02198C5.08083 7.91956 4.93943 7.86834 4.75685 7.86834C4.60766 7.86834 4.4774 7.91176 4.36607 7.9986C4.25696 8.08544 4.2024 8.19344 4.2024 8.32258H3.07682C3.07682 8.06652 3.14807 7.83828 3.29058 7.63788C3.43309 7.43748 3.63015 7.28161 3.88176 7.17028C4.1356 7.05672 4.41394 6.99994 4.71677 6.99994C5.25785 6.99994 5.68314 7.12352 5.99265 7.37068C6.30216 7.61784 6.45691 7.95741 6.45691 8.38938C6.45691 8.59869 6.39234 8.79687 6.26319 8.98391C6.13627 9.16872 5.95035 9.31902 5.70541 9.43481C5.96371 9.52833 6.16633 9.67084 6.31329 9.86233C6.46025 10.0516 6.53373 10.2865 6.53373 10.5671C6.53373 11.0013 6.36673 11.3486 6.03273 11.6092C5.69873 11.8697 5.26008 11.9999 4.71677 11.9999C4.39835 11.9999 4.1022 11.9398 3.82832 11.8196C3.55667 11.6971 3.3507 11.529 3.21042 11.3152C3.07014 11.0992 3 10.8543 3 10.5804H4.13226C4.13226 10.7296 4.19238 10.8588 4.31263 10.9679C4.43287 11.077 4.58094 11.1315 4.75685 11.1315C4.95502 11.1315 5.11311 11.077 5.23113 10.9679C5.34914 10.8565 5.40815 10.7151 5.40815 10.5437C5.40815 10.2988 5.34692 10.1251 5.22445 10.0227C5.10198 9.92022 4.93275 9.86901 4.71677 9.86901H4.169V9.03067Z" fill="#AFB1B3"/>
<path d="M9.66681 15.3333H9.74536L11.6304 14.3137H11.709H11.7876L13.6727 15.3333H13.7512C13.9083 15.3333 13.9868 15.2549 13.9868 15.0979L13.5941 13.0588C13.5941 12.9804 13.5941 12.9019 13.6727 12.9019L15.165 11.4117C15.3222 11.2549 15.2436 11.098 15.0865 11.098L13.0443 10.7059C12.9658 10.7059 12.8872 10.6274 12.8872 10.6274L11.9447 8.74506C11.9447 8.66663 11.8661 8.66663 11.7876 8.66663C11.709 8.66663 11.6304 8.66663 11.6304 8.74506L10.6094 10.6274C10.6094 10.7059 10.5309 10.7059 10.4523 10.7059L8.33154 11.0195C8.17444 11.0195 8.09589 11.2549 8.25299 11.3333L9.74536 12.8234C9.82391 12.9019 9.82391 12.9019 9.82391 12.9804L9.43118 15.0195C9.43118 15.2549 9.58827 15.3333 9.66681 15.3333Z" fill="#AFB1B3"/>
</svg>
