<svg width="16" height="16" viewBox="0 0 16 16" fill="none" xmlns="http://www.w3.org/2000/svg">
<path fill-rule="evenodd" clip-rule="evenodd" d="M12.0964 9.66358C11.4418 10.5786 10.4608 11.3777 9.25 12V11.4825C10.3076 10.691 11.0888 9.7009 11.4764 8.59484L12.0472 9.62743C12.0472 9.62743 12.0667 9.64504 12.0964 9.66358ZM12.9623 7.56019C12.9872 7.37561 13 7.18877 13 7C13 4.97625 11.5338 3.175 9.25 2V2.5175C10.5375 3.48103 11.4153 4.7397 11.6721 6.14231C11.9028 6.23005 12.1968 6.38895 12.4432 6.67543C12.5705 6.82342 12.6611 6.9774 12.7238 7.12881L12.9623 7.56019ZM9.22972 6.66778C9.22754 6.67029 9.22537 6.6728 9.22319 6.67532C9.10766 6.80961 9.02236 6.94882 8.96074 7.08657L8.31746 8.16066L6.82453 8.36066C6.53021 8.38455 6.27143 8.4624 6.04847 8.5749L4.42857 7L7 4.5L9.22972 6.66778ZM1 7C1 9.02375 2.46625 10.8263 4.75 12V11.4825C3.205 10.3263 2.25 8.74625 2.25 7C2.25 5.255 3.205 3.67375 4.75 2.5175V2C2.46625 3.175 1 4.97625 1 7Z" fill="#AFB1B3"/>
<path d="M8.29935 15H8.39361L10.6557 13.7765H10.75H10.8443L13.1064 15H13.2006C13.3892 15 13.4834 14.9059 13.4834 14.7176L13.0121 12.2706C13.0121 12.1765 13.0121 12.0824 13.1064 12.0824L14.8972 10.2941C15.0858 10.1059 14.9915 9.9176 14.803 9.9176L12.3523 9.4471C12.2581 9.4471 12.1638 9.3529 12.1638 9.3529L11.0328 7.09412C11.0328 7 10.9385 7 10.8443 7C10.75 7 10.6557 7 10.6557 7.09412L9.4304 9.3529C9.4304 9.4471 9.3362 9.4471 9.2419 9.4471L6.69701 9.8235C6.5085 9.8235 6.41424 10.1059 6.60275 10.2L8.39361 11.9882C8.48787 12.0824 8.48787 12.0824 8.48787 12.1765L8.01659 14.6235C8.01659 14.9059 8.2051 15 8.29935 15Z" fill="#AFB1B3"/>
</svg>
