<?xml version="1.0" encoding="UTF-8"?>
<svg width="14px" height="14px" viewBox="0 0 14 14" version="1.1" xmlns="http://www.w3.org/2000/svg" xmlns:xlink="http://www.w3.org/1999/xlink">
    <!-- Generator: Sketch 56.3 (81716) - https://sketch.com -->
    <title>P</title>
    <desc>Created with Sketch.</desc>
    <g id="Page-1" stroke="none" stroke-width="1" fill="none" fill-rule="evenodd">
        <path d="M7,14 C3.13400675,14 0,10.8659932 0,7 C0,3.13400675 3.13400675,0 7,0 C10.8659932,0 14,3.13400675 14,7 C14,10.8659932 10.8659932,14 7,14 Z M7.4475,6.661 L6.6555,6.661 L6.6555,4.582 L7.4475,4.582 C7.63950096,4.582 7.8052493,4.60599976 7.94475,4.654 C8.0842507,4.70200024 8.19974954,4.77024956 8.29125,4.85875 C8.38275046,4.94725044 8.45099977,5.05299938 8.496,5.176 C8.54100023,5.29900061 8.5635,5.43549925 8.5635,5.5855 C8.5635,5.9245017 8.47650087,6.18849905 8.3025,6.3775 C8.12849913,6.56650094 7.84350198,6.661 7.4475,6.661 Z M7.4475,3.4435 L5.1345,3.4435 L5.1345,10 L6.6555,10 L6.6555,7.8085 L7.4475,7.8085 C7.90050227,7.8085 8.29274834,7.75375055 8.62425,7.64425 C8.95575166,7.53474945 9.22949892,7.38250097 9.4455,7.1875 C9.66150108,6.99249902 9.82199948,6.75850136 9.927,6.4855 C10.0320005,6.21249863 10.0845,5.91250163 10.0845,5.5855 C10.0845,5.28249848 10.0335005,5.00050131 9.9315,4.7395 C9.82949949,4.47849869 9.67125107,4.25200096 9.45675,4.06 C9.24224893,3.86799904 8.96925166,3.71725055 8.63775,3.60775 C8.30624834,3.49824945 7.90950231,3.4435 7.4475,3.4435 Z" id="P" fill="#9AA7B0"></path>
    </g>
</svg>