<?xml version="1.0" encoding="UTF-8"?>
<svg width="14px" height="14px" viewBox="0 0 14 14" version="1.1" xmlns="http://www.w3.org/2000/svg" xmlns:xlink="http://www.w3.org/1999/xlink">
    <!-- Generator: Sketch 56.3 (81716) - https://sketch.com -->
    <title>Q</title>
    <desc>Created with Sketch.</desc>
    <g id="Page-1" stroke="none" stroke-width="1" fill="none" fill-rule="evenodd">
        <path d="M7,14 C3.13400675,14 0,10.8659932 0,7 C0,3.13400675 3.13400675,0 7,0 C10.8659932,0 14,3.13400675 14,7 C14,10.8659932 10.8659932,14 7,14 Z M5.318,6.7195 C5.318,6.39549838 5.35999958,6.1037513 5.444,5.84425 C5.52800042,5.5847487 5.64874921,5.3650009 5.80625,5.185 C5.96375079,5.0049991 6.15724885,4.86700048 6.38675,4.771 C6.61625115,4.67499952 6.87799853,4.627 7.172,4.627 C7.46300146,4.627 7.72249886,4.67499952 7.9505,4.771 C8.17850114,4.86700048 8.37124921,5.0049991 8.52875,5.185 C8.68625079,5.3650009 8.80699958,5.5847487 8.891,5.84425 C8.97500042,6.1037513 9.017,6.39549838 9.017,6.7195 C9.017,7.04650163 8.97500042,7.3397487 8.891,7.59925 C8.80699958,7.8587513 8.68625079,8.0784991 8.52875,8.2585 C8.37124921,8.4385009 8.17850114,8.57574953 7.9505,8.67025 C7.72249886,8.76475047 7.46300146,8.812 7.172,8.812 C6.87799853,8.812 6.61625115,8.76475047 6.38675,8.67025 C6.15724885,8.57574953 5.96375079,8.4385009 5.80625,8.2585 C5.64874921,8.0784991 5.52800042,7.8587513 5.444,7.59925 C5.35999958,7.3397487 5.318,7.04650163 5.318,6.7195 Z M10.943,11.2285 L9.2825,9.415 C9.48650102,9.26499925 9.6687492,9.09250098 9.82925,8.8975 C9.9897508,8.70249902 10.1247495,8.49100114 10.23425,8.263 C10.3437505,8.03499886 10.4277497,7.7912513 10.48625,7.53175 C10.5447503,7.2722487 10.574,7.00150141 10.574,6.7195 C10.574,6.24849764 10.4922508,5.80900204 10.32875,5.401 C10.1652492,4.99299796 9.93500149,4.6390015 9.638,4.339 C9.34099852,4.0389985 8.98325209,3.80275086 8.56475,3.63025 C8.14624791,3.45774914 7.68200255,3.3715 7.172,3.3715 C6.66199745,3.3715 6.1970021,3.45699914 5.777,3.628 C5.3569979,3.79900085 4.99775149,4.0344985 4.69925,4.3345 C4.40074851,4.6345015 4.16975082,4.98849796 4.00625,5.3965 C3.84274918,5.80450204 3.761,6.24549763 3.761,6.7195 C3.761,7.19350237 3.84274918,7.63449796 4.00625,8.0425 C4.16975082,8.45050204 4.40074851,8.80524849 4.69925,9.10675 C4.99775149,9.40825151 5.3569979,9.64449915 5.777,9.8155 C6.1970021,9.98650085 6.66199745,10.072 7.172,10.072 C7.46600147,10.072 7.74049873,10.0435003 7.9955,9.9865 L8.81,10.9 C8.93300062,11.0260006 9.06574929,11.1122498 9.20825,11.15875 C9.35075071,11.2052502 9.5119991,11.2285 9.692,11.2285 L10.943,11.2285 Z" id="Q" fill="#9AA7B0"></path>
    </g>
</svg>