<svg width="16" height="16" viewBox="0 0 16 16" fill="none" xmlns="http://www.w3.org/2000/svg">
    <path d="M2 5V6H1V5H2Z" fill="#AFB1B3"/>
    <path d="M3 3V4H1V3H3Z" fill="#AFB1B3"/>
    <path d="M14 3V5H13V3H14Z" fill="#AFB1B3"/>
    <path d="M5 3V4H4V3H5Z" fill="#AFB1B3"/>
    <path d="M5 12V13H4V12H5Z" fill="#AFB1B3"/>
    <path d="M2 11L2 13H1L1 11H2Z" fill="#AFB1B3"/>
    <path d="M3 12V13H2V12H3Z" fill="#AFB1B3"/>
    <path d="M7 3V4H6V3H7Z" fill="#AFB1B3"/>
    <path d="M7 12V13H6V12H7Z" fill="#AFB1B3"/>
    <path d="M9 3V4H8V3H9Z" fill="#AFB1B3"/>
    <path d="M11 12V13H10V12H11Z" fill="#AFB1B3"/>
    <path d="M9 12V13H8V12H9Z" fill="#AFB1B3"/>
    <path d="M10 9V10H9V9H10Z" fill="#AFB1B3"/>
    <path d="M10 11V12H9V11H10Z" fill="#AFB1B3"/>
    <path d="M10 7V8H9V7H10Z" fill="#AFB1B3"/>
    <path d="M10 5V6H9V5H10Z" fill="#AFB1B3"/>
    <path d="M6 8V9H5V8H6Z" fill="#AFB1B3"/>
    <path d="M6 10V11H5V10H6Z" fill="#AFB1B3"/>
    <path d="M6 6V7H5V6H6Z" fill="#AFB1B3"/>
    <path d="M6 4V5H5V4H6Z" fill="#AFB1B3"/>
    <path d="M11 3V4H10V3H11Z" fill="#AFB1B3"/>
    <path d="M13 12V13H12V12H13Z" fill="#AFB1B3"/>
    <path d="M13 3V4H12V3H13Z" fill="#AFB1B3"/>
    <path d="M14 12V13H13V12H14Z" fill="#AFB1B3"/>
    <path d="M14 6V7H13V6H14Z" fill="#AFB1B3"/>
    <path d="M2 9V10H1V9H2Z" fill="#AFB1B3"/>
    <path d="M14 8V9H13V8H14Z" fill="#AFB1B3"/>
    <path d="M14 10V11H13V10H14Z" fill="#AFB1B3"/>
    <path d="M2 7V8H1V7H2Z" fill="#AFB1B3"/>
</svg>
