<svg width="16" height="16" viewBox="0 0 16 16" fill="none" xmlns="http://www.w3.org/2000/svg">
<path fill-rule="evenodd" clip-rule="evenodd" d="M1.00031 3C1.00031 1.89543 1.89574 1 3.00031 1H11.0003C12.1049 1 13.0003 1.89543 13.0003 3V7.75001C12.7919 7.57356 12.5775 7.47771 12.4222 7.42601C12.2136 7.35659 12.0359 7.34113 11.9563 7.33583C11.8779 7.33061 11.8056 7.33086 11.7902 7.33092H11.7902L11.7879 7.33092L11.7856 7.33092C11.7702 7.33086 11.6979 7.33061 11.6195 7.33583C11.5399 7.34112 11.3623 7.35656 11.1537 7.42595C10.9355 7.49854 10.6008 7.65827 10.3296 8.00622C10.225 8.14051 10.1477 8.27972 10.0919 8.41747L9.50922 9.49156L8.15698 9.69156C7.26551 9.77143 6.73393 10.4548 6.57237 11.0195C6.40539 11.6031 6.5233 12.4339 7.18203 12.9499L7.23224 13H3.00031C1.89574 13 1.00031 12.1046 1.00031 11V3ZM13.0001 11.0293C12.9844 12.1204 12.0951 13 11.0003 13H9.59102L8.25328 11.6642C8.09618 11.5858 8.17473 11.3505 8.33183 11.3505L10.4526 11.0368C10.5311 11.0368 10.6096 11.0368 10.6096 10.9583L11.6307 9.07602C11.6307 8.99759 11.7093 8.99759 11.7879 8.99759C11.8664 8.99759 11.945 8.99759 11.945 9.07602L12.8875 10.9583C12.8875 10.9583 12.9389 11.0097 13.0001 11.0293ZM6.20392 9.72672L10.5842 5.34647L9.38946 4.15176L6.20392 7.3373L4.61115 5.74453L3.41644 6.93924L6.20392 9.72672Z" fill="#AFB1B3"/>
<path d="M9.66712 15.6641H9.74567L11.6307 14.6446H11.7093H11.7879L13.673 15.6641H13.7515C13.9087 15.6641 13.9872 15.5857 13.9872 15.4288L13.5944 13.3897C13.5944 13.3112 13.5944 13.2328 13.673 13.2328L15.1653 11.7426C15.3225 11.5857 15.2439 11.4288 15.0868 11.4288L13.0446 11.0367C12.9661 11.0367 12.8875 10.9582 12.8875 10.9582L11.945 9.07593C11.945 8.9975 11.8664 8.9975 11.7879 8.9975C11.7093 8.9975 11.6307 8.9975 11.6307 9.07593L10.6097 10.9582C10.6097 11.0367 10.5312 11.0367 10.4526 11.0367L8.33184 11.3504C8.17475 11.3504 8.0962 11.5857 8.25329 11.6642L9.74567 13.1543C9.82422 13.2328 9.82422 13.2328 9.82422 13.3112L9.43149 15.3504C9.43149 15.5857 9.58858 15.6641 9.66712 15.6641Z" fill="#AFB1B3"/>
</svg>
