<svg width="16" height="16" viewBox="0 0 16 16" fill="none" xmlns="http://www.w3.org/2000/svg">
<path d="M2 4V5H1V4H2Z" fill="#9AA7B0"/>
<path d="M3 2V3H1V2H3Z" fill="#9AA7B0"/>
<path d="M15 2V4H14V2H15Z" fill="#9AA7B0"/>
<path d="M2 10V11H1V10H2Z" fill="#9AA7B0"/>
<path d="M2 12L2 14H1L1 12H2Z" fill="#9AA7B0"/>
<path d="M4 13V14H3V13H4Z" fill="#9AA7B0"/>
<path d="M5 2V3H4V2H5Z" fill="#9AA7B0"/>
<path d="M6 13V14H5V13H6Z" fill="#9AA7B0"/>
<path d="M7 2V3H6V2H7Z" fill="#9AA7B0"/>
<path d="M8 13V14H7V13H8Z" fill="#9AA7B0"/>
<path d="M9 2V3H8V2H9Z" fill="#9AA7B0"/>
<path d="M10 13V14H9V13H10Z" fill="#9AA7B0"/>
<path d="M11 2V3H10V2H11Z" fill="#9AA7B0"/>
<path d="M12 13V14H11V13H12Z" fill="#9AA7B0"/>
<path d="M13 2V3H12V2H13Z" fill="#9AA7B0"/>
<path d="M15 5V6H14V5H15Z" fill="#9AA7B0"/>
<path d="M15 11V12H14V11H15Z" fill="#9AA7B0"/>
<path d="M15 13V14H13V13H15Z" fill="#9AA7B0"/>
<path d="M2 8V9H1V8H2Z" fill="#9AA7B0"/>
<path d="M15 9V10H14V9H15Z" fill="#9AA7B0"/>
<path d="M2 6V7H1V6H2Z" fill="#9AA7B0"/>
<path d="M15 7V8H14V7H15Z" fill="#9AA7B0"/>
<path fill-rule="evenodd" clip-rule="evenodd" d="M3 12V4H13V12H3ZM12.2857 10.6667L9.07143 6.66667L6.92857 9.4359L5.5 8.20513L3.71429 10.6667H12.2857ZM5.85714 6.66667C6.25163 6.66667 6.57143 6.36819 6.57143 6C6.57143 5.63181 6.25163 5.33333 5.85714 5.33333C5.46266 5.33333 5.14286 5.63181 5.14286 6C5.14286 6.36819 5.46266 6.66667 5.85714 6.66667Z" fill="#9AA7B0"/>
</svg>
