<svg width="16" height="16" viewBox="0 0 16 16" fill="none" xmlns="http://www.w3.org/2000/svg">
<path fill-rule="evenodd" clip-rule="evenodd" d="M2.75 15C1.7875 15 1 14.2125 1 13.25V2.75C1 1.7875 1.7875 1 2.75 1H13.25C14.2125 1 15 1.7875 15 2.75V13.25C15 14.2125 14.2125 15 13.25 15H2.75ZM8 3H7V4.01373C5.87501 4.13809 5 5.09186 5 6.25C5 7.40814 5.87501 8.36191 7 8.48627V11H5V12H7V13H8V12H8.75C9.99264 12 11 10.9926 11 9.75C11 8.50736 9.99264 7.5 8.75 7.5H8V5H10.5V4H8V3ZM7 5.025C6.42944 5.14082 6 5.64526 6 6.25C6 6.85474 6.42944 7.35918 7 7.475V5.025ZM8 8.5V11H8.75C9.44036 11 10 10.4404 10 9.75C10 9.05964 9.44036 8.5 8.75 8.5H8Z" fill="#AFB1B3"/>
</svg>
