<svg width="16" height="16" viewBox="0 0 16 16" fill="none" xmlns="http://www.w3.org/2000/svg">
<path fill-rule="evenodd" clip-rule="evenodd" d="M9.27816 4.74264C9.05178 4.96902 8.92461 5.27605 8.92461 5.59619H7.92461C7.92461 5.01083 8.15715 4.44945 8.57105 4.03553L9.83882 2.76777C10.8151 1.79146 12.3981 1.79146 13.3744 2.76777C14.3507 3.74408 14.3507 5.32699 13.3744 6.3033L10.2758 9.40182C9.4487 10.229 8.10763 10.229 7.28048 9.40182C7.04798 9.16931 6.8728 8.88586 6.76882 8.57392L6.71283 8.40596L6.62444 8.14079L6.58025 8.00821L7.52893 7.69198L7.57312 7.82457L7.66151 8.08973L7.7175 8.2577C7.7724 8.42236 7.86486 8.57198 7.98759 8.69471C8.42421 9.13133 9.13211 9.13133 9.56873 8.69471L12.6673 5.59619C13.253 5.01041 13.253 4.06066 12.6673 3.47487C12.0815 2.88909 11.1317 2.88909 10.5459 3.47487L9.27816 4.74264ZM6.86395 11.3995C7.09032 11.1731 7.2175 10.8661 7.2175 10.5459H8.2175C8.2175 11.1313 7.98497 11.6927 7.57105 12.1066L6.30329 13.3744C5.32698 14.3507 3.74407 14.3507 2.76775 13.3744C1.79144 12.3981 1.79144 10.8151 2.76775 9.83883L5.88974 6.71685C6.70393 5.90267 8.02397 5.90267 8.83816 6.71685C9.09133 6.97003 9.27504 7.28414 9.37158 7.62892L9.41432 7.78157L9.49166 8.05779L8.52871 8.32742L8.45136 8.0512L8.40863 7.89855C8.35839 7.71914 8.26279 7.5557 8.13105 7.42396C7.70739 7.0003 7.0205 7.0003 6.59684 7.42396L3.47486 10.5459C2.88907 11.1317 2.88907 12.0815 3.47486 12.6673C4.06065 13.253 5.0104 13.253 5.59618 12.6673L6.86395 11.3995Z" fill="#9AA7B0"/>
</svg>
