<svg width="32" height="16" viewBox="0 0 32 16" fill="none" xmlns="http://www.w3.org/2000/svg">
<g clip-path="url(#clip0)">
<path d="M5.06933 11.3349L1.76257 8.03039L5.07152 4.69165L4.18444 3.8125L0 8.03466L4.18652 12.2184L5.06933 11.3349Z" fill="#9AA7B0"/>
<path d="M27.0022 11.3349L30.309 8.03039L27 4.69165L27.8871 3.8125L32.0715 8.03466L27.885 12.2184L27.0022 11.3349Z" fill="#9AA7B0"/>
<rect x="7" y="4" width="8" height="8" rx="1" fill="#9AA7B0"/>
<rect x="17" y="4" width="8" height="8" rx="1" fill="#9AA7B0"/>
<path d="M11.5713 10H10.8828V7.23438C10.8828 6.9043 10.8906 6.64258 10.9062 6.44922C10.8613 6.49609 10.8057 6.54785 10.7393 6.60449C10.6748 6.66113 10.4561 6.84082 10.083 7.14355L9.7373 6.70703L10.9971 5.7168H11.5713V10Z" fill="#3C3F41"/>
<path d="M22.4531 10H19.5498V9.47852L20.6543 8.36816C20.9805 8.03418 21.1963 7.79785 21.3018 7.65918C21.4092 7.51855 21.4873 7.38672 21.5361 7.26367C21.585 7.14062 21.6094 7.00879 21.6094 6.86816C21.6094 6.6748 21.5508 6.52246 21.4336 6.41113C21.3184 6.2998 21.1582 6.24414 20.9531 6.24414C20.7891 6.24414 20.6299 6.27441 20.4756 6.33496C20.3232 6.39551 20.1465 6.50488 19.9453 6.66309L19.5732 6.20898C19.8115 6.00781 20.043 5.86523 20.2676 5.78125C20.4922 5.69727 20.7314 5.65527 20.9854 5.65527C21.3838 5.65527 21.7031 5.75977 21.9434 5.96875C22.1836 6.17578 22.3037 6.45508 22.3037 6.80664C22.3037 7 22.2686 7.18359 22.1982 7.35742C22.1299 7.53125 22.0234 7.71094 21.8789 7.89648C21.7363 8.08008 21.498 8.3291 21.1641 8.64355L20.4199 9.36426V9.39355H22.4531V10Z" fill="#3C3F41"/>
</g>
<defs>
<clipPath id="clip0">
<rect width="32" height="16" fill="white"/>
</clipPath>
</defs>
</svg>
