<svg width="16" height="16" viewBox="0 0 16 16" fill="none" xmlns="http://www.w3.org/2000/svg">
<path d="M11.8135 12.2184L10.9306 11.3349L14.2374 8.03039L10.9286 4.69165L11.8155 3.8125L16 8.03466L11.8135 12.2184ZM5.06933 11.3349L1.76257 8.03039L5.07152 4.69165L4.18444 3.8125L0 8.03466L4.18652 12.2184L5.06933 11.3349ZM8.62449 8.03002C8.62449 8.37426 8.34434 8.65441 7.99998 8.65441C7.65562 8.65441 7.3756 8.37426 7.3756 8.03002C7.3756 7.68566 7.65562 7.40551 7.99998 7.40551C8.34434 7.40551 8.62449 7.68566 8.62449 8.03002ZM11.1223 8.03002C11.1223 8.37426 10.8421 8.65441 10.4978 8.65441C10.1534 8.65441 9.87339 8.37426 9.87339 8.03002C9.87339 7.68566 10.1534 7.40551 10.4978 7.40551C10.8421 7.40551 11.1223 7.68566 11.1223 8.03002V8.03002ZM6.1267 8.03002C6.1267 8.37426 5.84655 8.65441 5.50219 8.65441C5.15783 8.65441 4.8778 8.37426 4.8778 8.03002C4.8778 7.68566 5.15783 7.40551 5.50219 7.40551C5.84655 7.40551 6.1267 7.68566 6.1267 8.03002Z" fill="#9AA7B0"/>
</svg>
