<svg width="16" height="16" viewBox="0 0 16 16" fill="none" xmlns="http://www.w3.org/2000/svg">
<path d="M8.64615 2.86667V1.93333H10.4923C10.6769 1.93333 10.7692 1.84 10.7692 1.65333V1.28C10.7692 1.09333 10.5846 1 10.4923 1H5.50769C5.32308 1 5.23077 1.09333 5.23077 1.28V1.74667C5.23077 1.93333 5.32308 2.02667 5.50769 2.02667H7.35385V2.96C4.30769 3.24 2 5.76 2 8.93333C2 12.2933 4.67692 15 8 15C11.3231 15 14 12.2933 14 8.93333C14 5.76 11.6923 3.24 8.64615 2.86667ZM8 13.9733C5.23077 13.9733 3.01538 11.7333 3.01538 8.93333C3.01538 6.13333 5.23077 3.8 8 3.8C10.7692 3.8 12.9846 6.04 12.9846 8.84C12.9846 11.64 10.7692 13.9733 8 13.9733Z" fill="#AFB1B3"/>
<path d="M13.6 4.99999C13.7 5.09999 13.8 5.09999 13.9 4.99999L14.4 4.49999C14.5 4.39999 14.5 4.29999 14.4 4.19999L12.8 2.59999C12.7 2.49999 12.6 2.49999 12.5 2.59999L12 3.09999C11.9 3.19999 11.9 3.29999 12 3.39999L13.6 4.99999Z" fill="#AFB1B3"/>
<path d="M8 5V8.8H11.8C11.8 6.7 10.1 5 8 5Z" fill="#AFB1B3"/>
</svg>
