<svg width="16" height="16" viewBox="0 0 16 16" fill="none" xmlns="http://www.w3.org/2000/svg">
<path fill-rule="evenodd" clip-rule="evenodd" d="M11.1632 10C10.6015 11.1825 9.3962 12 8 12C6.6038 12 5.39855 11.1825 4.83682 10H2H1V9V8V7H2H4.83682C5.39855 5.81753 6.6038 5 8 5C9.3962 5 10.6015 5.81753 11.1632 7H15V10H11.1632ZM2 8H4.53544C4.51209 8.1633 4.5 8.33024 4.5 8.5C4.5 8.66976 4.51209 8.8367 4.53544 9H2V8ZM8 10C8.82843 10 9.5 9.32843 9.5 8.5C9.5 7.67157 8.82843 7 8 7C7.17157 7 6.5 7.67157 6.5 8.5C6.5 9.32843 7.17157 10 8 10Z" fill="#9AA7B0"/>
</svg>
