<svg width="16" height="16" viewBox="0 0 16 16" fill="none" xmlns="http://www.w3.org/2000/svg">
<path d="M13 13L13 12L15 12L15 13L13 13Z" fill="#AFB1B3"/>
<path d="M14 7L14 6L15 6L15 7L14 7Z" fill="#AFB1B3"/>
<path d="M14 5L14 3L15 3L15 5L14 5Z" fill="#AFB1B3"/>
<path d="M12 4L12 3L13 3L13 4L12 4Z" fill="#AFB1B3"/>
<path d="M9 13L9 12L10 12L10 13L9 13Z" fill="#AFB1B3"/>
<path d="M11 13L11 12L12 12L12 13L11 13Z" fill="#AFB1B3"/>
<path d="M10 4L10 3L11 3L11 4L10 4Z" fill="#AFB1B3"/>
<path d="M7 13L7 12L8 12L8 13L7 13Z" fill="#AFB1B3"/>
<path d="M8 4L8 3L9 3L9 4L8 4Z" fill="#AFB1B3"/>
<path d="M5 13L5 12L6 12L6 13L5 13Z" fill="#AFB1B3"/>
<path d="M6 4L6 3L7 3L7 4L6 4Z" fill="#AFB1B3"/>
<path d="M3 13L3 12L4 12L4 13L3 13Z" fill="#AFB1B3"/>
<path d="M4 4L4 3L5 3L5 4L4 4Z" fill="#AFB1B3"/>
<path d="M1 4L1 3L3 3L3 4L1 4Z" fill="#AFB1B3"/>
<path d="M1 13L1 11L2 11L2 13L1 13Z" fill="#AFB1B3"/>
<path d="M1 6L1 5L2 5L2 6L1 6Z" fill="#AFB1B3"/>
<path d="M14 9L14 8L15 8L15 9L14 9Z" fill="#AFB1B3"/>
<path d="M1 8L1 7L2 7L2 8L1 8Z" fill="#AFB1B3"/>
<path d="M14 11L14 10L15 10L15 11L14 11Z" fill="#AFB1B3"/>
<path d="M1 10L1 9L2 9L2 10L1 10Z" fill="#AFB1B3"/>
<path d="M8 6L8 5L9 5L9 6L8 6Z" fill="#AFB1B3"/>
<path d="M8 8L8 7L9 7L9 8L8 8Z" fill="#AFB1B3"/>
<path d="M8 10L8 9L9 9L9 10L8 10Z" fill="#AFB1B3"/>
<path d="M8 12L8 11L9 11L9 12L8 12Z" fill="#AFB1B3"/>
</svg>
