<!--
  - Copyright 2022 Haulmont.
  -
  - Licensed under the Apache License, Version 2.0 (the "License");
  - you may not use this file except in compliance with the License.
  - You may obtain a copy of the License at
  -
  -     http://www.apache.org/licenses/LICENSE-2.0
  -
  - Unless required by applicable law or agreed to in writing, software
  - distributed under the License is distributed on an "AS IS" BASIS,
  - WITHOUT WARRANTIES OR CONDITIONS OF ANY KIND, either express or implied.
  - See the License for the specific language governing permissions and
  - limitations under the License.
  -->

<svg width="16" height="16" viewBox="0 0 16 16" fill="none" xmlns="http://www.w3.org/2000/svg">
<path d="M15 14H11V15H15V14Z" fill="#9AA7B0"/>
<path d="M15 12H14V13H15V12Z" fill="#9AA7B0"/>
<path d="M12 11H11V12H12V11Z" fill="#9AA7B0"/>
<path d="M12 13H11V14H12V13Z" fill="#9AA7B0"/>
<path d="M15 10H14V11H15V10Z" fill="#9AA7B0"/>
<path d="M12 9H11V10H12V9Z" fill="#9AA7B0"/>
<path d="M15 8H14V9H15V8Z" fill="#9AA7B0"/>
<path d="M12 7H11V8H12V7Z" fill="#9AA7B0"/>
<path d="M15 6H14V7H15V6Z" fill="#9AA7B0"/>
<path d="M12 5H11V6H12V5Z" fill="#9AA7B0"/>
<path d="M15 4H14V5H15V4Z" fill="#9AA7B0"/>
<path d="M15 2H14V3H15V2Z" fill="#9AA7B0"/>
<path d="M12 3H11V4H12V3Z" fill="#9AA7B0"/>
<path d="M15 1H11V2H15V1Z" fill="#9AA7B0"/>
<path d="M5 14H1V15H5V14Z" fill="#9AA7B0"/>
<path d="M5 12H4V13H5V12Z" fill="#9AA7B0"/>
<path d="M2 11H1V12H2V11Z" fill="#9AA7B0"/>
<path d="M2 13H1V14H2V13Z" fill="#9AA7B0"/>
<path d="M5 10H4V11H5V10Z" fill="#9AA7B0"/>
<path d="M2 9H1V10H2V9Z" fill="#9AA7B0"/>
<path d="M5 8H4V9H5V8Z" fill="#9AA7B0"/>
<path d="M2 7H1V8H2V7Z" fill="#9AA7B0"/>
<path d="M5 6H4V7H5V6Z" fill="#9AA7B0"/>
<path d="M2 5H1V6H2V5Z" fill="#9AA7B0"/>
<path d="M5 4H4V5H5V4Z" fill="#9AA7B0"/>
<path d="M2 3H1V4H2V3Z" fill="#9AA7B0"/>
<path d="M5 2H4V3H5V2Z" fill="#9AA7B0"/>
<path d="M5 1H1V2H5V1Z" fill="#9AA7B0"/>
<path d="M9.5 1.5H6.5V14.5H9.5V1.5Z" stroke="#9AA7B0"/>
</svg>
