<svg width="16" height="16" viewBox="0 0 16 16" fill="none" xmlns="http://www.w3.org/2000/svg">
<path d="M3 6L1 1L6 3L3.5 3.5L3 6Z" fill="#9AA7B0"/>
<path fill-rule="evenodd" clip-rule="evenodd" d="M12.5 3H7V2H12.5C13.8807 2 15 3.11929 15 4.5V12.5C15 13.8807 13.8807 15 12.5 15H4.5C3.11929 15 2 13.8807 2 12.5V7H3V12.5C3 13.3284 3.67157 14 4.5 14H12.5C13.3284 14 14 13.3284 14 12.5V4.5C14 3.67157 13.3284 3 12.5 3Z" fill="#9AA7B0"/>
<path fill-rule="evenodd" clip-rule="evenodd" d="M8.5 6C8.22386 6 8 6.22386 8 6.5C8 6.77614 8.22386 7 8.5 7H11.5C11.7761 7 12 6.77614 12 6.5C12 6.22386 11.7761 6 11.5 6H8.5ZM7 6.5C7 5.67157 7.67157 5 8.5 5H11.5C12.3284 5 13 5.67157 13 6.5C13 7.32843 12.3284 8 11.5 8H8.5C7.67157 8 7 7.32843 7 6.5Z" fill="#9AA7B0"/>
<path d="M11.5 9.5H5.5C4.94772 9.5 4.5 9.94772 4.5 10.5C4.5 11.0523 4.94772 11.5 5.5 11.5H11.5C12.0523 11.5 12.5 11.0523 12.5 10.5C12.5 9.94772 12.0523 9.5 11.5 9.5Z" fill="#9AA7B0"/>
<path fill-rule="evenodd" clip-rule="evenodd" d="M5.5 10C5.22386 10 5 10.2239 5 10.5C5 10.7761 5.22386 11 5.5 11H11.5C11.7761 11 12 10.7761 12 10.5C12 10.2239 11.7761 10 11.5 10H5.5ZM4 10.5C4 9.67157 4.67157 9 5.5 9H11.5C12.3284 9 13 9.67157 13 10.5C13 11.3284 12.3284 12 11.5 12H5.5C4.67157 12 4 11.3284 4 10.5Z" fill="#9AA7B0"/>
<path d="M3 3.70703L3.70711 2.99992L5.82843 5.12124L5.12132 5.82835L3 3.70703Z" fill="#9AA7B0"/>
</svg>
