<svg width="16" height="16" viewBox="0 0 16 16" fill="none" xmlns="http://www.w3.org/2000/svg">
<path d="M3 6L1 1L6 3L3.5 3.5L3 6Z" fill="#AFB1B3"/>
<path fill-rule="evenodd" clip-rule="evenodd" d="M12.5 3H7V2H12.5C13.8807 2 15 3.11929 15 4.5V12.5C15 13.8807 13.8807 15 12.5 15H4.5C3.11929 15 2 13.8807 2 12.5V7H3V12.5C3 13.3284 3.67157 14 4.5 14H12.5C13.3284 14 14 13.3284 14 12.5V4.5C14 3.67157 13.3284 3 12.5 3Z" fill="#AFB1B3"/>
<path fill-rule="evenodd" clip-rule="evenodd" d="M8.5 5C8.22386 5 8 5.22386 8 5.5C8 5.77614 8.22386 6 8.5 6H11.5C11.7761 6 12 5.77614 12 5.5C12 5.22386 11.7761 5 11.5 5H8.5ZM7 5.5C7 4.67157 7.67157 4 8.5 4H11.5C12.3284 4 13 4.67157 13 5.5C13 6.32843 12.3284 7 11.5 7H8.5C7.67157 7 7 6.32843 7 5.5Z" fill="#AFB1B3"/>
<path d="M3 3.70703L3.70711 2.99992L5.82843 5.12124L5.12132 5.82835L3 3.70703Z" fill="#AFB1B3"/>
<path fill-rule="evenodd" clip-rule="evenodd" d="M5.5 11C5.22386 11 5 11.2239 5 11.5C5 11.7761 5.22386 12 5.5 12H11.5C11.7761 12 12 11.7761 12 11.5C12 11.2239 11.7761 11 11.5 11H5.5ZM4 11.5C4 10.6716 4.67157 10 5.5 10H11.5C12.3284 10 13 10.6716 13 11.5C13 12.3284 12.3284 13 11.5 13H5.5C4.67157 13 4 12.3284 4 11.5Z" fill="#AFB1B3"/>
<path d="M2 8V9H14V8H2Z" fill="#AFB1B3"/>
</svg>
