<!--
  - Copyright 2022 Haulmont.
  -
  - Licensed under the Apache License, Version 2.0 (the "License");
  - you may not use this file except in compliance with the License.
  - You may obtain a copy of the License at
  -
  -     http://www.apache.org/licenses/LICENSE-2.0
  -
  - Unless required by applicable law or agreed to in writing, software
  - distributed under the License is distributed on an "AS IS" BASIS,
  - WITHOUT WARRANTIES OR CONDITIONS OF ANY KIND, either express or implied.
  - See the License for the specific language governing permissions and
  - limitations under the License.
  -->

<svg width="16" height="16" viewBox="0 0 16 16" fill="none" xmlns="http://www.w3.org/2000/svg">
<path fill-rule="evenodd" clip-rule="evenodd" d="M4 2C2.89543 2 2 2.89543 2 4V12C2 13.1046 2.89543 14 4 14H12C13.1046 14 14 13.1046 14 12V4C14 2.89543 13.1046 2 12 2H4ZM6.93721 9.99958L6.62473 8.74968H5.06237L4.43742 9.99958H3.5L6.31226 5H6.93721L7.85596 9.99958H6.93721ZM6.62473 8.12473L6.31226 6.24989L5.37484 8.12473H6.62473ZM10.6869 7.18731C10.0568 7.18731 9.69554 7.8111 9.58092 8.30558L9.437 9.06216C9.58092 9.37463 9.83278 9.37463 10.0619 9.37463C10.7136 9.37463 11.1327 8.8563 11.3118 8.12473C11.3118 7.81226 11.2884 7.18731 10.6869 7.18731ZM9.74947 9.99958C9.25532 9.99958 8.9006 9.86996 8.49958 9.6871L9.437 5H10.3744L9.8029 7.14049C10.1537 6.73408 10.4909 6.56237 10.9994 6.56237C11.7656 6.56237 12.5357 6.94611 12.2493 8.12473C11.9628 9.31013 10.795 10.0199 9.74947 9.99958Z" fill="#9AA7B0"/>
</svg>
