<svg width="16" height="16" viewBox="0 0 16 16" fill="none" xmlns="http://www.w3.org/2000/svg">
<path fill-rule="evenodd" clip-rule="evenodd" d="M13.8758 11.579L14.8088 12.2317C14.6292 12.7732 14.3345 13.2641 13.9527 13.6771L12.9065 13.217C12.6087 13.4728 12.259 13.6725 11.8748 13.7991L11.7608 14.9127C11.4846 14.9699 11.1981 15 10.9044 15C10.6107 15 10.3242 14.9699 10.048 14.9127L9.93402 13.7991C9.54977 13.6725 9.20006 13.4728 8.9023 13.217L7.85611 13.6771C7.47432 13.2641 7.17956 12.7732 7 12.2317L7.93299 11.579C7.89482 11.3918 7.8748 11.1982 7.8748 11C7.8748 10.8018 7.89482 10.6082 7.93299 10.421L7 9.76831C7.17956 9.22683 7.47432 8.73585 7.85611 8.32286L8.9023 8.78302C9.20006 8.5272 9.54977 8.32751 9.93402 8.20092L10.048 7.08728C10.3242 7.03009 10.6107 7 10.9044 7C11.1981 7 11.4846 7.03009 11.7608 7.08728L11.8748 8.20092C12.259 8.32751 12.6087 8.5272 12.9065 8.78302L13.9527 8.32286C14.3345 8.73585 14.6292 9.22683 14.8088 9.76831L13.8758 10.421C13.914 10.6082 13.934 10.8018 13.934 11C13.934 11.1982 13.914 11.3918 13.8758 11.579ZM10.9044 12.4156C11.7061 12.4156 12.3561 11.7819 12.3561 11.0001C12.3561 10.2184 11.7061 9.58462 10.9044 9.58462C10.1027 9.58462 9.45271 10.2184 9.45271 11.0001C9.45271 11.7819 10.1027 12.4156 10.9044 12.4156Z" fill="#9AA7B0"/>
<path fill-rule="evenodd" clip-rule="evenodd" d="M2 13V5H10.9044H14V6.11713L14.453 5.91786L15 6.50952V3C15 1.89543 14.1046 1 13 1H3C1.89543 1 1 1.89543 1 3V13C1 14.1046 1.89543 15 3 15H6.3556C6.07745 14.6944 5.82988 14.3595 5.61852 14H3C2.44772 14 2 13.5523 2 13ZM4.81608 10L4.63268 10.5531L5.27159 11H3V10H4.81608ZM9.95459 14L10.048 14.9127C10.3242 14.9699 10.6107 15 10.9044 15C11.1981 15 11.4846 14.9699 11.7608 14.9127L11.8542 14H9.95459ZM13.7944 13.6075L13.9527 13.6771C14.3345 13.2641 14.6292 12.7732 14.8088 12.2317L14 11.6659V13C14 13.2285 13.9234 13.4391 13.7944 13.6075ZM14 10.3341L14.8088 9.76831C14.6367 9.24942 14.3589 8.77691 14 8.37496V10.3341ZM11.8542 8H9.95459L10.048 7.08728C10.3242 7.03009 10.6107 7 10.9044 7C11.1981 7 11.4846 7.03009 11.7608 7.08728L11.8542 8ZM6.3556 7C6.07745 7.30563 5.82987 7.64051 5.61852 8H3V7H6.3556ZM3.75 3.75134C4.16421 3.75134 4.5 3.41555 4.5 3.00134C4.5 2.58712 4.16421 2.25134 3.75 2.25134C3.33579 2.25134 3 2.58712 3 3.00134C3 3.41555 3.33579 3.75134 3.75 3.75134ZM7 3.00134C7 3.41555 6.66421 3.75134 6.25 3.75134C5.83579 3.75134 5.5 3.41555 5.5 3.00134C5.5 2.58712 5.83579 2.25134 6.25 2.25134C6.66421 2.25134 7 2.58712 7 3.00134ZM8.75209 3.75134C9.1663 3.75134 9.50209 3.41555 9.50209 3.00134C9.50209 2.58712 9.1663 2.25134 8.75209 2.25134C8.33788 2.25134 8.00209 2.58712 8.00209 3.00134C8.00209 3.41555 8.33788 3.75134 8.75209 3.75134Z" fill="#9AA7B0"/>
</svg>
