<?xml version="1.0"?>
<svg width="128" height="128" xmlns="http://www.w3.org/2000/svg" xmlns:svg="http://www.w3.org/2000/svg">
 <g class="layer">
  <rect fill="#ffffff" height="128" id="svg_11" rx="25" ry="25" width="128" x="0" y="0"/>
 </g>
 <g class="layer">
  <g id="svg_8">
   <path d="m45.186003,7.711127l-22.672267,22.717918l8.31771,8.334457l22.672267,-22.717918a14.614873,14.6443 0 0 1 20.168277,-0.409891l6.892171,6.819102l8.292918,-8.322036l-6.842587,-6.856364a26.415856,26.469044 0 0 0 -36.828488,0.434733z" fill="#f91264" id="svg_1"/>
   <path d="m72.221658,97.067441l24.791981,-24.8419l2.268466,-2.273034a8.677194,8.694665 0 0 0 0,-12.247057l-2.268466,-2.273034l-24.606042,-24.58106l-2.25607,-2.273034a8.677194,8.694665 0 0 0 -12.222447,0l-2.218882,2.273034l-24.791981,24.8419l-2.268466,2.273034a8.677194,8.694665 0 0 0 0,12.247057l2.268466,2.22335l24.544062,24.630744l2.268466,2.273034a8.677194,8.694665 0 0 0 12.222447,0l2.268466,-2.273034zm-32.936147,-33.027306l24.791981,-24.8419l24.544062,24.593481l-24.791981,24.8419l-24.544062,-24.593481z" fill="#17124b" id="svg_2"/>
   <path d="m74.304185,111.972581a14.614873,14.6443 0 0 1 -20.168277,0.409891l0,0l-6.954151,-6.968153l-8.330106,8.346878l6.941755,6.906048a26.40346,26.456623 0 0 0 36.828488,-0.434733l22.796227,-22.842127l-8.31771,-8.334457l-22.796227,22.916653z" fill="#25cae0" id="svg_3"/>
   <polygon fill="#25cae0" id="svg_4" points="105.41812133789062,80.70906257629395 105.41812133789062,80.70906257629395 108.19482421875,83.49133491516113 105.41812133789062,80.70906257629395 "/>
   <polygon fill="#f91264" id="svg_5" points="14.134049415588379,38.82561683654785 18.299102783203125,42.99905204772949 14.134049415588379,38.82561683654785 14.134049415588379,38.82561683654785 "/>
   <path d="m16.043028,74.312261a14.602477,14.631879 0 0 1 -0.409068,-20.208886l6.879775,-6.893627l-8.367294,-8.384141l-6.879775,6.893627l0,0a26.40346,26.456623 0 0 0 0.43386,36.902642l22.672267,22.717918l8.330106,-8.272353l-22.659871,-22.75518z" fill="#fab12b" id="svg_6"/>
   <path d="m120.169351,45.259659l-22.709455,-22.717918l-8.280522,8.334457l22.635079,22.717918a14.627269,14.656721 0 0 1 0.409068,20.221307l-6.805399,6.893627l8.305314,8.322036l6.842587,-6.868785a26.415856,26.469044 0 0 0 -0.396672,-36.902642z" fill="#22d382" id="svg_7"/>
  </g>
 </g>
</svg>