<!--
  - Copyright 2022 Haulmont.
  -
  - Licensed under the Apache License, Version 2.0 (the "License");
  - you may not use this file except in compliance with the License.
  - You may obtain a copy of the License at
  -
  -     http://www.apache.org/licenses/LICENSE-2.0
  -
  - Unless required by applicable law or agreed to in writing, software
  - distributed under the License is distributed on an "AS IS" BASIS,
  - WITHOUT WARRANTIES OR CONDITIONS OF ANY KIND, either express or implied.
  - See the License for the specific language governing permissions and
  - limitations under the License.
  -->

<svg width="16" height="16" viewBox="0 0 16 16" fill="none" xmlns="http://www.w3.org/2000/svg">
<path fill-rule="evenodd" clip-rule="evenodd" d="M3.83333 1.3725C5.03815 1.11121 6.26795 0.986645 7.5 1.00113C8.73205 0.986645 9.96189 1.11121 11.1667 1.3725C11.6296 1.4608 12.0677 1.65096 12.45 1.92954C12.4778 1.95765 12.5139 1.98576 12.5534 2.01645C12.6443 2.08711 12.7528 2.17144 12.8167 2.30091C12.9317 2.42779 12.9969 2.5929 13 2.76511V6.55587L12.8992 6.35455C12.8311 6.17286 12.7326 5.98808 12.5943 5.81048C12.269 5.39297 11.8673 5.20125 11.6055 5.1141C11.3551 5.03079 11.1419 5.01225 11.0464 5.00589C10.9523 4.99962 10.8655 4.99993 10.8471 4.99999L10.8443 5L10.8415 4.99999C10.8231 4.99993 10.7363 4.99962 10.6423 5.00588C10.5468 5.01224 10.3336 5.03076 10.0833 5.11404C9.82145 5.20114 9.41973 5.39281 9.09435 5.81036C8.96878 5.9715 8.87606 6.13856 8.80908 6.30385L8.10989 7.59277L7.47289 7.68699C6.24827 7.74456 5.02189 7.61899 3.83333 7.31432C3.38761 7.21618 2.95627 7.06015 2.55 6.85011V9.0783C2.55 9.17114 2.64167 9.35682 2.91667 9.44966C3.22539 9.6593 3.56604 9.8161 3.925 9.91387C4.11738 9.95668 4.31045 9.99583 4.5041 10.0313C4.50542 10.6272 4.7357 11.2872 5.31726 11.7427L6.3383 12.7623L6.10839 13.9561C5.344 13.9 4.58382 13.7902 3.83333 13.6275C3.37045 13.5392 2.93236 13.3491 2.55 13.0705C2.52225 13.0423 2.48609 13.0142 2.44661 12.9836C2.35572 12.9129 2.24725 12.8286 2.18333 12.6991C2.08166 12.5298 2.01898 12.3393 2 12.142V2.76511C2.00313 2.5929 2.06833 2.42779 2.18333 2.30091C2.24725 2.17144 2.35572 2.08711 2.44662 2.01645C2.48609 1.98576 2.52225 1.95765 2.55 1.92954C2.93236 1.65096 3.37045 1.4608 3.83333 1.3725ZM13 9.57145V12.142C12.981 12.3393 12.9183 12.5298 12.8167 12.6991C12.7446 12.865 12.6138 12.9975 12.45 13.0705C12.0677 13.3491 11.6296 13.5392 11.1667 13.6275C10.1699 13.8437 9.15598 13.9663 8.13784 13.9939L8.48787 12.1765C8.48787 12.0824 8.48787 12.0824 8.39361 11.9882L6.67624 10.2734C6.95052 10.2846 7.2252 10.2885 7.5 10.2852C8.70174 10.2997 9.90121 10.1751 11.075 9.91387C11.4569 9.79912 11.8257 9.64351 12.175 9.44966C12.1927 9.43447 12.2096 9.41859 12.2259 9.40207C12.2608 9.42491 12.3066 9.4471 12.3523 9.4471L13 9.57145ZM11.1454 7.31892L11.0328 7.09412C11.0328 7 10.9385 7 10.8443 7C10.75 7 10.6557 7 10.6557 7.09412L10.4621 7.45106C10.6906 7.41188 10.9184 7.36783 11.1454 7.31892ZM11.075 1.92954C9.90121 1.66832 8.70174 1.54372 7.5 1.55818C6.30075 1.58992 5.10564 1.71407 3.925 1.92954C3.57269 2.04529 3.23443 2.20101 2.91667 2.39375C2.64167 2.57943 2.55 2.76511 2.55 2.85795C2.55 2.95079 2.64167 3.04363 2.91667 3.22932C3.23443 3.42204 3.57269 3.57778 3.925 3.69352C5.09882 3.95475 6.29826 4.07934 7.5 4.06489C8.70797 4.09376 9.91331 3.93725 11.075 3.60068C11.4569 3.48594 11.8257 3.33033 12.175 3.13648C12.247 3.10161 12.3096 3.04963 12.3575 2.98497C12.4054 2.9203 12.4371 2.84488 12.45 2.76511C12.45 2.67227 12.45 2.57943 12.175 2.39375C11.8257 2.1999 11.4569 2.04429 11.075 1.92954Z" fill="#9AA7B0"/>
<path d="M8.29935 15H8.39361L10.6557 13.7765H10.75H10.8443L13.1064 15H13.2006C13.3892 15 13.4834 14.9059 13.4834 14.7176L13.0121 12.2706C13.0121 12.1765 13.0121 12.0824 13.1064 12.0824L14.8972 10.2941C15.0858 10.1059 14.9915 9.9176 14.803 9.9176L12.3523 9.4471C12.2581 9.4471 12.1638 9.3529 12.1638 9.3529L11.0328 7.09412C11.0328 7 10.9385 7 10.8443 7C10.75 7 10.6557 7 10.6557 7.09412L9.4304 9.3529C9.4304 9.4471 9.3362 9.4471 9.2419 9.4471L6.69701 9.8235C6.5085 9.8235 6.41424 10.1059 6.60275 10.2L8.39361 11.9882C8.48787 12.0824 8.48787 12.0824 8.48787 12.1765L8.01659 14.6235C8.01659 14.9059 8.2051 15 8.29935 15Z" fill="#9AA7B0"/>
</svg>
