<!--
  - Copyright 2022 Haulmont.
  -
  - Licensed under the Apache License, Version 2.0 (the "License");
  - you may not use this file except in compliance with the License.
  - You may obtain a copy of the License at
  -
  -     http://www.apache.org/licenses/LICENSE-2.0
  -
  - Unless required by applicable law or agreed to in writing, software
  - distributed under the License is distributed on an "AS IS" BASIS,
  - WITHOUT WARRANTIES OR CONDITIONS OF ANY KIND, either express or implied.
  - See the License for the specific language governing permissions and
  - limitations under the License.
  -->

<svg width="16" height="16" viewBox="0 0 16 16" fill="none" xmlns="http://www.w3.org/2000/svg">
<path d="M3 13H4V15H3V13Z" fill="#9AA7B0"/>
<path d="M9 14H10V15H9V14Z" fill="#9AA7B0"/>
<path d="M11 14H13V15H11V14Z" fill="#9AA7B0"/>
<path d="M12 12H13V13H12V12Z" fill="#9AA7B0"/>
<path d="M3 9H4V10H3V9Z" fill="#9AA7B0"/>
<path d="M3 11H4V12H3V11Z" fill="#9AA7B0"/>
<path d="M12 10H13V11H12V10Z" fill="#9AA7B0"/>
<path d="M3 7H4V8H3V7Z" fill="#9AA7B0"/>
<path d="M12 8H13V9H12V8Z" fill="#9AA7B0"/>
<path d="M3 5H4V6H3V5Z" fill="#9AA7B0"/>
<path d="M12 6H13V7H12V6Z" fill="#9AA7B0"/>
<path d="M3 3H4V4H3V3Z" fill="#9AA7B0"/>
<path d="M12 4H13V5H12V4Z" fill="#9AA7B0"/>
<path d="M12 1H13V3H12V1Z" fill="#9AA7B0"/>
<path d="M3 1H5V2H3V1Z" fill="#9AA7B0"/>
<path d="M10 1H11V2H10V1Z" fill="#9AA7B0"/>
<path d="M7 14H8V15H7V14Z" fill="#9AA7B0"/>
<path d="M8 1H9V2H8V1Z" fill="#9AA7B0"/>
<path d="M5 14H6V15H5V14Z" fill="#9AA7B0"/>
<path d="M6 1H7V2H6V1Z" fill="#9AA7B0"/>
<path d="M11 5H12V6H11V5Z" fill="#9AA7B0"/>
<path d="M9 5H10V6H9V5Z" fill="#9AA7B0"/>
<path d="M7 5H8V6H7V5Z" fill="#9AA7B0"/>
<path d="M5 5H6V6H5V5Z" fill="#9AA7B0"/>
<path d="M10 10H11V11H10V10Z" fill="#9AA7B0"/>
<path d="M8 10H9V11H8V10Z" fill="#9AA7B0"/>
<path d="M6 10H7V11H6V10Z" fill="#9AA7B0"/>
<path d="M4 10H5V11H4V10Z" fill="#9AA7B0"/>
</svg>
