<svg width="28" height="22" viewBox="0 0 28 22" fill="none" xmlns="http://www.w3.org/2000/svg">
<path fill-rule="evenodd" clip-rule="evenodd" d="M27.8355 4.90191C27.9455 6.87191 27.9995 8.82191 27.9995 10.7539C27.9995 12.6859 27.9445 14.6369 27.8355 16.6059C27.8355 17.8459 27.4435 18.8929 26.6595 19.7499C25.8755 20.6069 24.9195 21.0349 23.7895 21.0349C20.9815 21.1809 17.7185 21.2539 13.9995 21.2539C10.2805 21.2539 7.01751 21.1809 4.20951 21.0349C3.07951 21.0349 2.12351 20.6069 1.33951 19.7499C0.555512 18.8939 0.163512 17.8449 0.163512 16.6059C0.0535117 14.6359 -0.000488281 12.6859 -0.000488281 10.7539C-0.000488281 9.47791 0.0725117 7.52691 0.218512 4.90191C0.218512 3.66191 0.601512 2.61491 1.36651 1.75791C2.13251 0.900906 3.08051 0.472906 4.21051 0.472906C6.87151 0.326906 9.96951 0.253906 13.5075 0.253906H14.4915C18.0285 0.253906 21.1275 0.326906 23.7885 0.472906C24.9185 0.472906 25.8755 0.900906 26.6595 1.75791C27.4435 2.61491 27.8355 3.66291 27.8355 4.90191ZM11.3195 16.1139L19.2495 10.7549L11.3195 5.34091V16.1139Z" fill="#AEAAD6"/>
</svg>
