<svg width="21" height="22" viewBox="0 0 21 22" fill="none" xmlns="http://www.w3.org/2000/svg">
<path fill-rule="evenodd" clip-rule="evenodd" d="M17.0625 0.253906C18.1067 0.254436 19.1079 0.669534 19.8462 1.40797C20.5844 2.1464 20.9992 3.14774 20.9995 4.19191V17.3159C20.9992 18.3602 20.5843 19.3617 19.8458 20.1002C19.1073 20.8387 18.1059 21.2536 17.0615 21.2539H14.4915V13.1189H17.2115L17.6225 9.94691H14.4925V7.92391C14.4925 7.00791 14.7375 6.39291 16.0635 6.39291L17.7315 6.37891V3.54891C17.4445 3.50791 16.4465 3.42591 15.2985 3.42591C12.8785 3.42591 11.2105 4.90191 11.2105 7.60891V9.94691H8.47651V13.1189H11.2105V21.2539H3.93651C2.89234 21.2534 1.89111 20.8383 1.15286 20.0998C0.41462 19.3614 -0.000223331 18.3601 -0.000488281 17.3159L-0.000488281 4.19191C-0.000223186 3.14756 0.414757 2.14607 1.15322 1.40761C1.89168 0.669152 2.89317 0.254171 3.93751 0.253906L17.0615 0.253906H17.0625Z" fill="#AEAAD6"/>
</svg>
