<svg width="21" height="22" viewBox="0 0 21 22" fill="none" xmlns="http://www.w3.org/2000/svg">
<path fill-rule="evenodd" clip-rule="evenodd" d="M17.4995 6.84391C16.9731 7.0767 16.4161 7.23327 15.8455 7.30891C16.4491 6.94723 16.9008 6.37865 17.1165 5.70891C16.5505 6.04497 15.9307 6.28077 15.2845 6.40591C15.0167 6.11963 14.6926 5.89175 14.3327 5.73653C13.9727 5.58132 13.5845 5.50212 13.1925 5.50391C12.8155 5.50391 12.4422 5.57817 12.094 5.72247C11.7457 5.86676 11.4293 6.07825 11.1628 6.34486C10.8962 6.61147 10.6849 6.92798 10.5407 7.2763C10.3965 7.62462 10.3224 7.99793 10.3225 8.37491C10.3225 8.59391 10.3355 8.82591 10.3905 9.03091C9.24567 8.97469 8.12552 8.67785 7.10309 8.15974C6.08065 7.64162 5.17886 6.91387 4.45651 6.02391C4.21051 6.44691 4.06051 6.95391 4.06051 7.47291C4.06051 8.47091 4.52451 9.34591 5.30451 9.86491C4.82551 9.85191 4.37451 9.71491 3.93751 9.50991V9.53691C3.93751 10.9319 4.98951 12.0939 6.30251 12.3539C6.05651 12.4219 5.86451 12.4629 5.60451 12.4629C5.42751 12.4629 5.24951 12.4359 5.07151 12.4079C5.25638 12.9773 5.61355 13.4751 6.09365 13.8327C6.57374 14.1903 7.15306 14.3899 7.75151 14.4039C6.5474 15.3474 5.01846 15.7753 3.49951 15.5939C4.81438 16.433 6.3417 16.8789 7.90151 16.8789C13.1795 16.8789 16.0775 12.5039 16.0775 8.70291C16.0775 8.57991 16.0775 8.45691 16.0635 8.33391C16.6318 7.93219 17.119 7.42664 17.4995 6.84391ZM20.9995 4.19191V17.3159C20.9992 18.3602 20.5843 19.3617 19.8458 20.1002C19.1073 20.8387 18.1059 21.2536 17.0615 21.2539H3.93751C2.89317 21.2536 1.89168 20.8387 1.15322 20.1002C0.414757 19.3617 -0.000223186 18.3602 -0.000488281 17.3159L-0.000488281 4.19191C-0.000223186 3.14756 0.414757 2.14607 1.15322 1.40761C1.89168 0.669152 2.89317 0.254171 3.93751 0.253906L17.0615 0.253906C18.1059 0.254171 19.1073 0.669152 19.8458 1.40761C20.5843 2.14607 20.9992 3.14756 20.9995 4.19191Z" fill="#AEAAD6"/>
</svg>
