<svg width="21" height="22" viewBox="0 0 21 22" fill="none" xmlns="http://www.w3.org/2000/svg">
<path fill-rule="evenodd" clip-rule="evenodd" d="M19.3045 0.253906C19.7785 0.253906 20.1795 0.408906 20.5075 0.718906C20.8355 1.02891 20.9995 1.42091 20.9995 1.89491V19.4489C20.9995 19.9229 20.8355 20.3429 20.5075 20.7069C20.1795 21.0719 19.7775 21.2539 19.3045 21.2539H1.80451C1.33051 21.2539 0.910512 21.0719 0.546512 20.7069C0.181512 20.3439 -0.000488281 19.9239 -0.000488281 19.4489V1.89491C-0.000488281 1.42091 0.172512 1.02891 0.519512 0.718906C0.865512 0.408906 1.29351 0.253906 1.80451 0.253906H19.3045ZM6.77451 17.8669V8.38291H4.06451V17.8669H6.77451ZM4.43051 6.66091C4.67551 6.90591 4.99651 7.02791 5.39451 7.02791C5.79251 7.02791 6.12251 6.89791 6.38251 6.63791C6.64251 6.37791 6.77251 6.06391 6.77251 5.69591C6.77251 5.29791 6.65051 4.96891 6.40551 4.70891C6.16051 4.44891 5.83851 4.31891 5.44051 4.31891C5.04251 4.31891 4.71351 4.44891 4.45351 4.70891C4.19351 4.96891 4.06351 5.29891 4.06351 5.69591C4.06351 6.06391 4.18551 6.38591 4.43051 6.66091ZM17.6105 17.8669V12.4469C17.6105 11.1109 17.3055 10.0989 16.6945 9.41291C16.0825 8.72591 15.2875 8.38291 14.3085 8.38291C13.2605 8.38291 12.3865 8.88891 11.6885 9.89991V8.59991H8.80551V17.8669H11.6895V12.6099C11.6895 12.2489 11.7235 11.9959 11.7935 11.8509C12.0735 11.1289 12.5635 10.7679 13.2615 10.7679C14.2405 10.7679 14.7295 11.4359 14.7295 12.7729V17.8669H17.6125H17.6105Z" fill="#AEAAD6"/>
</svg>
